<?xml version="1.0" encoding="utf-8" standalone="no"?>
<!DOCTYPE svg PUBLIC "-//W3C//DTD SVG 1.1//EN"
  "http://www.w3.org/Graphics/SVG/1.1/DTD/svg11.dtd">
<svg xmlns:xlink="http://www.w3.org/1999/xlink" width="1001.328125pt" height="400.09225pt" viewBox="0 0 1001.328125 400.09225" xmlns="http://www.w3.org/2000/svg" version="1.1">
 <metadata>
  <rdf:RDF xmlns:dc="http://purl.org/dc/elements/1.1/" xmlns:cc="http://creativecommons.org/ns#" xmlns:rdf="http://www.w3.org/1999/02/22-rdf-syntax-ns#">
   <cc:Work>
    <dc:type rdf:resource="http://purl.org/dc/dcmitype/StillImage"/>
    <dc:date>2026-06-02T20:41:21.901077</dc:date>
    <dc:format>image/svg+xml</dc:format>
    <dc:creator>
     <cc:Agent>
      <dc:title>Matplotlib v3.10.9, https://matplotlib.org/</dc:title>
     </cc:Agent>
    </dc:creator>
   </cc:Work>
  </rdf:RDF>
 </metadata>
 <defs>
  <style type="text/css">*{stroke-linejoin: round; stroke-linecap: butt}</style>
 </defs>
 <g id="figure_1">
  <g id="patch_1">
   <path d="M 0 400.09225 
L 1001.328125 400.09225 
L 1001.328125 0 
L 0 0 
z
" style="fill: #ffffff"/>
  </g>
  <g id="axes_1">
   <g id="patch_2">
    <path d="M 46.965625 362.536 
L 487.540625 362.536 
L 487.540625 75.228 
L 46.965625 75.228 
z
" style="fill: #ffffff"/>
   </g>
   <g id="matplotlib.axis_1">
    <g id="xtick_1">
     <g id="line2d_1">
      <defs>
       <path id="m7ea9ab49bd" d="M 0 0 
L 0 3.5 
" style="stroke: #000000; stroke-width: 0.8"/>
      </defs>
      <g>
       <use xlink:href="#m7ea9ab49bd" x="120.394792" y="362.536" style="stroke: #000000; stroke-width: 0.8"/>
      </g>
     </g>
     <g id="text_1">
      <!-- Train -->
      <g transform="translate(108.401042 377.134437) scale(0.1 -0.1)">
       <defs>
        <path id="DejaVuSans-54" d="M -19 4666 
L 3928 4666 
L 3928 4134 
L 2272 4134 
L 2272 0 
L 1638 0 
L 1638 4134 
L -19 4134 
L -19 4666 
z
" transform="scale(0.015625)"/>
        <path id="DejaVuSans-72" d="M 2631 2963 
Q 2534 3019 2420 3045 
Q 2306 3072 2169 3072 
Q 1681 3072 1420 2755 
Q 1159 2438 1159 1844 
L 1159 0 
L 581 0 
L 581 3500 
L 1159 3500 
L 1159 2956 
Q 1341 3275 1631 3429 
Q 1922 3584 2338 3584 
Q 2397 3584 2469 3576 
Q 2541 3569 2628 3553 
L 2631 2963 
z
" transform="scale(0.015625)"/>
        <path id="DejaVuSans-61" d="M 2194 1759 
Q 1497 1759 1228 1600 
Q 959 1441 959 1056 
Q 959 750 1161 570 
Q 1363 391 1709 391 
Q 2188 391 2477 730 
Q 2766 1069 2766 1631 
L 2766 1759 
L 2194 1759 
z
M 3341 1997 
L 3341 0 
L 2766 0 
L 2766 531 
Q 2569 213 2275 61 
Q 1981 -91 1556 -91 
Q 1019 -91 701 211 
Q 384 513 384 1019 
Q 384 1609 779 1909 
Q 1175 2209 1959 2209 
L 2766 2209 
L 2766 2266 
Q 2766 2663 2505 2880 
Q 2244 3097 1772 3097 
Q 1472 3097 1187 3025 
Q 903 2953 641 2809 
L 641 3341 
Q 956 3463 1253 3523 
Q 1550 3584 1831 3584 
Q 2591 3584 2966 3190 
Q 3341 2797 3341 1997 
z
" transform="scale(0.015625)"/>
        <path id="DejaVuSans-69" d="M 603 3500 
L 1178 3500 
L 1178 0 
L 603 0 
L 603 3500 
z
M 603 4863 
L 1178 4863 
L 1178 4134 
L 603 4134 
L 603 4863 
z
" transform="scale(0.015625)"/>
        <path id="DejaVuSans-6e" d="M 3513 2113 
L 3513 0 
L 2938 0 
L 2938 2094 
Q 2938 2591 2744 2837 
Q 2550 3084 2163 3084 
Q 1697 3084 1428 2787 
Q 1159 2491 1159 1978 
L 1159 0 
L 581 0 
L 581 3500 
L 1159 3500 
L 1159 2956 
Q 1366 3272 1645 3428 
Q 1925 3584 2291 3584 
Q 2894 3584 3203 3211 
Q 3513 2838 3513 2113 
z
" transform="scale(0.015625)"/>
       </defs>
       <use xlink:href="#DejaVuSans-54"/>
       <use xlink:href="#DejaVuSans-72" transform="translate(46.333984 0)"/>
       <use xlink:href="#DejaVuSans-61" transform="translate(87.447266 0)"/>
       <use xlink:href="#DejaVuSans-69" transform="translate(148.726562 0)"/>
       <use xlink:href="#DejaVuSans-6e" transform="translate(176.509766 0)"/>
      </g>
     </g>
    </g>
    <g id="xtick_2">
     <g id="line2d_2">
      <g>
       <use xlink:href="#m7ea9ab49bd" x="267.253125" y="362.536" style="stroke: #000000; stroke-width: 0.8"/>
      </g>
     </g>
     <g id="text_2">
      <!-- Validation -->
      <g transform="translate(242.5625 377.134437) scale(0.1 -0.1)">
       <defs>
        <path id="DejaVuSans-56" d="M 1831 0 
L 50 4666 
L 709 4666 
L 2188 738 
L 3669 4666 
L 4325 4666 
L 2547 0 
L 1831 0 
z
" transform="scale(0.015625)"/>
        <path id="DejaVuSans-6c" d="M 603 4863 
L 1178 4863 
L 1178 0 
L 603 0 
L 603 4863 
z
" transform="scale(0.015625)"/>
        <path id="DejaVuSans-64" d="M 2906 2969 
L 2906 4863 
L 3481 4863 
L 3481 0 
L 2906 0 
L 2906 525 
Q 2725 213 2448 61 
Q 2172 -91 1784 -91 
Q 1150 -91 751 415 
Q 353 922 353 1747 
Q 353 2572 751 3078 
Q 1150 3584 1784 3584 
Q 2172 3584 2448 3432 
Q 2725 3281 2906 2969 
z
M 947 1747 
Q 947 1113 1208 752 
Q 1469 391 1925 391 
Q 2381 391 2643 752 
Q 2906 1113 2906 1747 
Q 2906 2381 2643 2742 
Q 2381 3103 1925 3103 
Q 1469 3103 1208 2742 
Q 947 2381 947 1747 
z
" transform="scale(0.015625)"/>
        <path id="DejaVuSans-74" d="M 1172 4494 
L 1172 3500 
L 2356 3500 
L 2356 3053 
L 1172 3053 
L 1172 1153 
Q 1172 725 1289 603 
Q 1406 481 1766 481 
L 2356 481 
L 2356 0 
L 1766 0 
Q 1100 0 847 248 
Q 594 497 594 1153 
L 594 3053 
L 172 3053 
L 172 3500 
L 594 3500 
L 594 4494 
L 1172 4494 
z
" transform="scale(0.015625)"/>
        <path id="DejaVuSans-6f" d="M 1959 3097 
Q 1497 3097 1228 2736 
Q 959 2375 959 1747 
Q 959 1119 1226 758 
Q 1494 397 1959 397 
Q 2419 397 2687 759 
Q 2956 1122 2956 1747 
Q 2956 2369 2687 2733 
Q 2419 3097 1959 3097 
z
M 1959 3584 
Q 2709 3584 3137 3096 
Q 3566 2609 3566 1747 
Q 3566 888 3137 398 
Q 2709 -91 1959 -91 
Q 1206 -91 779 398 
Q 353 888 353 1747 
Q 353 2609 779 3096 
Q 1206 3584 1959 3584 
z
" transform="scale(0.015625)"/>
       </defs>
       <use xlink:href="#DejaVuSans-56"/>
       <use xlink:href="#DejaVuSans-61" transform="translate(60.658203 0)"/>
       <use xlink:href="#DejaVuSans-6c" transform="translate(121.9375 0)"/>
       <use xlink:href="#DejaVuSans-69" transform="translate(149.720703 0)"/>
       <use xlink:href="#DejaVuSans-64" transform="translate(177.503906 0)"/>
       <use xlink:href="#DejaVuSans-61" transform="translate(240.980469 0)"/>
       <use xlink:href="#DejaVuSans-74" transform="translate(302.259766 0)"/>
       <use xlink:href="#DejaVuSans-69" transform="translate(341.46875 0)"/>
       <use xlink:href="#DejaVuSans-6f" transform="translate(369.251953 0)"/>
       <use xlink:href="#DejaVuSans-6e" transform="translate(430.433594 0)"/>
      </g>
     </g>
    </g>
    <g id="xtick_3">
     <g id="line2d_3">
      <g>
       <use xlink:href="#m7ea9ab49bd" x="414.111458" y="362.536" style="stroke: #000000; stroke-width: 0.8"/>
      </g>
     </g>
     <g id="text_3">
      <!-- Test -->
      <g transform="translate(404.266146 377.134437) scale(0.1 -0.1)">
       <defs>
        <path id="DejaVuSans-65" d="M 3597 1894 
L 3597 1613 
L 953 1613 
Q 991 1019 1311 708 
Q 1631 397 2203 397 
Q 2534 397 2845 478 
Q 3156 559 3463 722 
L 3463 178 
Q 3153 47 2828 -22 
Q 2503 -91 2169 -91 
Q 1331 -91 842 396 
Q 353 884 353 1716 
Q 353 2575 817 3079 
Q 1281 3584 2069 3584 
Q 2775 3584 3186 3129 
Q 3597 2675 3597 1894 
z
M 3022 2063 
Q 3016 2534 2758 2815 
Q 2500 3097 2075 3097 
Q 1594 3097 1305 2825 
Q 1016 2553 972 2059 
L 3022 2063 
z
" transform="scale(0.015625)"/>
        <path id="DejaVuSans-73" d="M 2834 3397 
L 2834 2853 
Q 2591 2978 2328 3040 
Q 2066 3103 1784 3103 
Q 1356 3103 1142 2972 
Q 928 2841 928 2578 
Q 928 2378 1081 2264 
Q 1234 2150 1697 2047 
L 1894 2003 
Q 2506 1872 2764 1633 
Q 3022 1394 3022 966 
Q 3022 478 2636 193 
Q 2250 -91 1575 -91 
Q 1294 -91 989 -36 
Q 684 19 347 128 
L 347 722 
Q 666 556 975 473 
Q 1284 391 1588 391 
Q 1994 391 2212 530 
Q 2431 669 2431 922 
Q 2431 1156 2273 1281 
Q 2116 1406 1581 1522 
L 1381 1569 
Q 847 1681 609 1914 
Q 372 2147 372 2553 
Q 372 3047 722 3315 
Q 1072 3584 1716 3584 
Q 2034 3584 2315 3537 
Q 2597 3491 2834 3397 
z
" transform="scale(0.015625)"/>
       </defs>
       <use xlink:href="#DejaVuSans-54"/>
       <use xlink:href="#DejaVuSans-65" transform="translate(44.083984 0)"/>
       <use xlink:href="#DejaVuSans-73" transform="translate(105.607422 0)"/>
       <use xlink:href="#DejaVuSans-74" transform="translate(157.707031 0)"/>
      </g>
     </g>
    </g>
   </g>
   <g id="matplotlib.axis_2">
    <g id="ytick_1">
     <g id="line2d_4">
      <path d="M 46.965625 362.309535 
L 487.540625 362.309535 
" clip-path="url(#p2c22441bcc)" style="fill: none; stroke: #b0b0b0; stroke-opacity: 0.25; stroke-width: 0.8; stroke-linecap: square"/>
     </g>
     <g id="line2d_5">
      <defs>
       <path id="m0283a4af4d" d="M 0 0 
L -3.5 0 
" style="stroke: #000000; stroke-width: 0.8"/>
      </defs>
      <g>
       <use xlink:href="#m0283a4af4d" x="46.965625" y="362.309535" style="stroke: #000000; stroke-width: 0.8"/>
      </g>
     </g>
     <g id="text_4">
      <!-- 0 -->
      <g transform="translate(33.603125 366.108754) scale(0.1 -0.1)">
       <defs>
        <path id="DejaVuSans-30" d="M 2034 4250 
Q 1547 4250 1301 3770 
Q 1056 3291 1056 2328 
Q 1056 1369 1301 889 
Q 1547 409 2034 409 
Q 2525 409 2770 889 
Q 3016 1369 3016 2328 
Q 3016 3291 2770 3770 
Q 2525 4250 2034 4250 
z
M 2034 4750 
Q 2819 4750 3233 4129 
Q 3647 3509 3647 2328 
Q 3647 1150 3233 529 
Q 2819 -91 2034 -91 
Q 1250 -91 836 529 
Q 422 1150 422 2328 
Q 422 3509 836 4129 
Q 1250 4750 2034 4750 
z
" transform="scale(0.015625)"/>
       </defs>
       <use xlink:href="#DejaVuSans-30"/>
      </g>
     </g>
    </g>
    <g id="ytick_2">
     <g id="line2d_6">
      <path d="M 46.965625 324.565447 
L 487.540625 324.565447 
" clip-path="url(#p2c22441bcc)" style="fill: none; stroke: #b0b0b0; stroke-opacity: 0.25; stroke-width: 0.8; stroke-linecap: square"/>
     </g>
     <g id="line2d_7">
      <g>
       <use xlink:href="#m0283a4af4d" x="46.965625" y="324.565447" style="stroke: #000000; stroke-width: 0.8"/>
      </g>
     </g>
     <g id="text_5">
      <!-- 100 -->
      <g transform="translate(20.878125 328.364666) scale(0.1 -0.1)">
       <defs>
        <path id="DejaVuSans-31" d="M 794 531 
L 1825 531 
L 1825 4091 
L 703 3866 
L 703 4441 
L 1819 4666 
L 2450 4666 
L 2450 531 
L 3481 531 
L 3481 0 
L 794 0 
L 794 531 
z
" transform="scale(0.015625)"/>
       </defs>
       <use xlink:href="#DejaVuSans-31"/>
       <use xlink:href="#DejaVuSans-30" transform="translate(63.623047 0)"/>
       <use xlink:href="#DejaVuSans-30" transform="translate(127.246094 0)"/>
      </g>
     </g>
    </g>
    <g id="ytick_3">
     <g id="line2d_8">
      <path d="M 46.965625 286.821359 
L 487.540625 286.821359 
" clip-path="url(#p2c22441bcc)" style="fill: none; stroke: #b0b0b0; stroke-opacity: 0.25; stroke-width: 0.8; stroke-linecap: square"/>
     </g>
     <g id="line2d_9">
      <g>
       <use xlink:href="#m0283a4af4d" x="46.965625" y="286.821359" style="stroke: #000000; stroke-width: 0.8"/>
      </g>
     </g>
     <g id="text_6">
      <!-- 200 -->
      <g transform="translate(20.878125 290.620578) scale(0.1 -0.1)">
       <defs>
        <path id="DejaVuSans-32" d="M 1228 531 
L 3431 531 
L 3431 0 
L 469 0 
L 469 531 
Q 828 903 1448 1529 
Q 2069 2156 2228 2338 
Q 2531 2678 2651 2914 
Q 2772 3150 2772 3378 
Q 2772 3750 2511 3984 
Q 2250 4219 1831 4219 
Q 1534 4219 1204 4116 
Q 875 4013 500 3803 
L 500 4441 
Q 881 4594 1212 4672 
Q 1544 4750 1819 4750 
Q 2544 4750 2975 4387 
Q 3406 4025 3406 3419 
Q 3406 3131 3298 2873 
Q 3191 2616 2906 2266 
Q 2828 2175 2409 1742 
Q 1991 1309 1228 531 
z
" transform="scale(0.015625)"/>
       </defs>
       <use xlink:href="#DejaVuSans-32"/>
       <use xlink:href="#DejaVuSans-30" transform="translate(63.623047 0)"/>
       <use xlink:href="#DejaVuSans-30" transform="translate(127.246094 0)"/>
      </g>
     </g>
    </g>
    <g id="ytick_4">
     <g id="line2d_10">
      <path d="M 46.965625 249.077271 
L 487.540625 249.077271 
" clip-path="url(#p2c22441bcc)" style="fill: none; stroke: #b0b0b0; stroke-opacity: 0.25; stroke-width: 0.8; stroke-linecap: square"/>
     </g>
     <g id="line2d_11">
      <g>
       <use xlink:href="#m0283a4af4d" x="46.965625" y="249.077271" style="stroke: #000000; stroke-width: 0.8"/>
      </g>
     </g>
     <g id="text_7">
      <!-- 300 -->
      <g transform="translate(20.878125 252.876489) scale(0.1 -0.1)">
       <defs>
        <path id="DejaVuSans-33" d="M 2597 2516 
Q 3050 2419 3304 2112 
Q 3559 1806 3559 1356 
Q 3559 666 3084 287 
Q 2609 -91 1734 -91 
Q 1441 -91 1130 -33 
Q 819 25 488 141 
L 488 750 
Q 750 597 1062 519 
Q 1375 441 1716 441 
Q 2309 441 2620 675 
Q 2931 909 2931 1356 
Q 2931 1769 2642 2001 
Q 2353 2234 1838 2234 
L 1294 2234 
L 1294 2753 
L 1863 2753 
Q 2328 2753 2575 2939 
Q 2822 3125 2822 3475 
Q 2822 3834 2567 4026 
Q 2313 4219 1838 4219 
Q 1578 4219 1281 4162 
Q 984 4106 628 3988 
L 628 4550 
Q 988 4650 1302 4700 
Q 1616 4750 1894 4750 
Q 2613 4750 3031 4423 
Q 3450 4097 3450 3541 
Q 3450 3153 3228 2886 
Q 3006 2619 2597 2516 
z
" transform="scale(0.015625)"/>
       </defs>
       <use xlink:href="#DejaVuSans-33"/>
       <use xlink:href="#DejaVuSans-30" transform="translate(63.623047 0)"/>
       <use xlink:href="#DejaVuSans-30" transform="translate(127.246094 0)"/>
      </g>
     </g>
    </g>
    <g id="ytick_5">
     <g id="line2d_12">
      <path d="M 46.965625 211.333182 
L 487.540625 211.333182 
" clip-path="url(#p2c22441bcc)" style="fill: none; stroke: #b0b0b0; stroke-opacity: 0.25; stroke-width: 0.8; stroke-linecap: square"/>
     </g>
     <g id="line2d_13">
      <g>
       <use xlink:href="#m0283a4af4d" x="46.965625" y="211.333182" style="stroke: #000000; stroke-width: 0.8"/>
      </g>
     </g>
     <g id="text_8">
      <!-- 400 -->
      <g transform="translate(20.878125 215.132401) scale(0.1 -0.1)">
       <defs>
        <path id="DejaVuSans-34" d="M 2419 4116 
L 825 1625 
L 2419 1625 
L 2419 4116 
z
M 2253 4666 
L 3047 4666 
L 3047 1625 
L 3713 1625 
L 3713 1100 
L 3047 1100 
L 3047 0 
L 2419 0 
L 2419 1100 
L 313 1100 
L 313 1709 
L 2253 4666 
z
" transform="scale(0.015625)"/>
       </defs>
       <use xlink:href="#DejaVuSans-34"/>
       <use xlink:href="#DejaVuSans-30" transform="translate(63.623047 0)"/>
       <use xlink:href="#DejaVuSans-30" transform="translate(127.246094 0)"/>
      </g>
     </g>
    </g>
    <g id="ytick_6">
     <g id="line2d_14">
      <path d="M 46.965625 173.589094 
L 487.540625 173.589094 
" clip-path="url(#p2c22441bcc)" style="fill: none; stroke: #b0b0b0; stroke-opacity: 0.25; stroke-width: 0.8; stroke-linecap: square"/>
     </g>
     <g id="line2d_15">
      <g>
       <use xlink:href="#m0283a4af4d" x="46.965625" y="173.589094" style="stroke: #000000; stroke-width: 0.8"/>
      </g>
     </g>
     <g id="text_9">
      <!-- 500 -->
      <g transform="translate(20.878125 177.388313) scale(0.1 -0.1)">
       <defs>
        <path id="DejaVuSans-35" d="M 691 4666 
L 3169 4666 
L 3169 4134 
L 1269 4134 
L 1269 2991 
Q 1406 3038 1543 3061 
Q 1681 3084 1819 3084 
Q 2600 3084 3056 2656 
Q 3513 2228 3513 1497 
Q 3513 744 3044 326 
Q 2575 -91 1722 -91 
Q 1428 -91 1123 -41 
Q 819 9 494 109 
L 494 744 
Q 775 591 1075 516 
Q 1375 441 1709 441 
Q 2250 441 2565 725 
Q 2881 1009 2881 1497 
Q 2881 1984 2565 2268 
Q 2250 2553 1709 2553 
Q 1456 2553 1204 2497 
Q 953 2441 691 2322 
L 691 4666 
z
" transform="scale(0.015625)"/>
       </defs>
       <use xlink:href="#DejaVuSans-35"/>
       <use xlink:href="#DejaVuSans-30" transform="translate(63.623047 0)"/>
       <use xlink:href="#DejaVuSans-30" transform="translate(127.246094 0)"/>
      </g>
     </g>
    </g>
    <g id="ytick_7">
     <g id="line2d_16">
      <path d="M 46.965625 135.845006 
L 487.540625 135.845006 
" clip-path="url(#p2c22441bcc)" style="fill: none; stroke: #b0b0b0; stroke-opacity: 0.25; stroke-width: 0.8; stroke-linecap: square"/>
     </g>
     <g id="line2d_17">
      <g>
       <use xlink:href="#m0283a4af4d" x="46.965625" y="135.845006" style="stroke: #000000; stroke-width: 0.8"/>
      </g>
     </g>
     <g id="text_10">
      <!-- 600 -->
      <g transform="translate(20.878125 139.644225) scale(0.1 -0.1)">
       <defs>
        <path id="DejaVuSans-36" d="M 2113 2584 
Q 1688 2584 1439 2293 
Q 1191 2003 1191 1497 
Q 1191 994 1439 701 
Q 1688 409 2113 409 
Q 2538 409 2786 701 
Q 3034 994 3034 1497 
Q 3034 2003 2786 2293 
Q 2538 2584 2113 2584 
z
M 3366 4563 
L 3366 3988 
Q 3128 4100 2886 4159 
Q 2644 4219 2406 4219 
Q 1781 4219 1451 3797 
Q 1122 3375 1075 2522 
Q 1259 2794 1537 2939 
Q 1816 3084 2150 3084 
Q 2853 3084 3261 2657 
Q 3669 2231 3669 1497 
Q 3669 778 3244 343 
Q 2819 -91 2113 -91 
Q 1303 -91 875 529 
Q 447 1150 447 2328 
Q 447 3434 972 4092 
Q 1497 4750 2381 4750 
Q 2619 4750 2861 4703 
Q 3103 4656 3366 4563 
z
" transform="scale(0.015625)"/>
       </defs>
       <use xlink:href="#DejaVuSans-36"/>
       <use xlink:href="#DejaVuSans-30" transform="translate(63.623047 0)"/>
       <use xlink:href="#DejaVuSans-30" transform="translate(127.246094 0)"/>
      </g>
     </g>
    </g>
    <g id="ytick_8">
     <g id="line2d_18">
      <path d="M 46.965625 98.100917 
L 487.540625 98.100917 
" clip-path="url(#p2c22441bcc)" style="fill: none; stroke: #b0b0b0; stroke-opacity: 0.25; stroke-width: 0.8; stroke-linecap: square"/>
     </g>
     <g id="line2d_19">
      <g>
       <use xlink:href="#m0283a4af4d" x="46.965625" y="98.100917" style="stroke: #000000; stroke-width: 0.8"/>
      </g>
     </g>
     <g id="text_11">
      <!-- 700 -->
      <g transform="translate(20.878125 101.900136) scale(0.1 -0.1)">
       <defs>
        <path id="DejaVuSans-37" d="M 525 4666 
L 3525 4666 
L 3525 4397 
L 1831 0 
L 1172 0 
L 2766 4134 
L 525 4134 
L 525 4666 
z
" transform="scale(0.015625)"/>
       </defs>
       <use xlink:href="#DejaVuSans-37"/>
       <use xlink:href="#DejaVuSans-30" transform="translate(63.623047 0)"/>
       <use xlink:href="#DejaVuSans-30" transform="translate(127.246094 0)"/>
      </g>
     </g>
    </g>
    <g id="text_12">
     <!-- BEKRN tokens per sample -->
     <g transform="translate(14.798438 283.801531) rotate(-90) scale(0.1 -0.1)">
      <defs>
       <path id="DejaVuSans-42" d="M 1259 2228 
L 1259 519 
L 2272 519 
Q 2781 519 3026 730 
Q 3272 941 3272 1375 
Q 3272 1813 3026 2020 
Q 2781 2228 2272 2228 
L 1259 2228 
z
M 1259 4147 
L 1259 2741 
L 2194 2741 
Q 2656 2741 2882 2914 
Q 3109 3088 3109 3444 
Q 3109 3797 2882 3972 
Q 2656 4147 2194 4147 
L 1259 4147 
z
M 628 4666 
L 2241 4666 
Q 2963 4666 3353 4366 
Q 3744 4066 3744 3513 
Q 3744 3084 3544 2831 
Q 3344 2578 2956 2516 
Q 3422 2416 3680 2098 
Q 3938 1781 3938 1306 
Q 3938 681 3513 340 
Q 3088 0 2303 0 
L 628 0 
L 628 4666 
z
" transform="scale(0.015625)"/>
       <path id="DejaVuSans-45" d="M 628 4666 
L 3578 4666 
L 3578 4134 
L 1259 4134 
L 1259 2753 
L 3481 2753 
L 3481 2222 
L 1259 2222 
L 1259 531 
L 3634 531 
L 3634 0 
L 628 0 
L 628 4666 
z
" transform="scale(0.015625)"/>
       <path id="DejaVuSans-4b" d="M 628 4666 
L 1259 4666 
L 1259 2694 
L 3353 4666 
L 4166 4666 
L 1850 2491 
L 4331 0 
L 3500 0 
L 1259 2247 
L 1259 0 
L 628 0 
L 628 4666 
z
" transform="scale(0.015625)"/>
       <path id="DejaVuSans-52" d="M 2841 2188 
Q 3044 2119 3236 1894 
Q 3428 1669 3622 1275 
L 4263 0 
L 3584 0 
L 2988 1197 
Q 2756 1666 2539 1819 
Q 2322 1972 1947 1972 
L 1259 1972 
L 1259 0 
L 628 0 
L 628 4666 
L 2053 4666 
Q 2853 4666 3247 4331 
Q 3641 3997 3641 3322 
Q 3641 2881 3436 2590 
Q 3231 2300 2841 2188 
z
M 1259 4147 
L 1259 2491 
L 2053 2491 
Q 2509 2491 2742 2702 
Q 2975 2913 2975 3322 
Q 2975 3731 2742 3939 
Q 2509 4147 2053 4147 
L 1259 4147 
z
" transform="scale(0.015625)"/>
       <path id="DejaVuSans-4e" d="M 628 4666 
L 1478 4666 
L 3547 763 
L 3547 4666 
L 4159 4666 
L 4159 0 
L 3309 0 
L 1241 3903 
L 1241 0 
L 628 0 
L 628 4666 
z
" transform="scale(0.015625)"/>
       <path id="DejaVuSans-20" transform="scale(0.015625)"/>
       <path id="DejaVuSans-6b" d="M 581 4863 
L 1159 4863 
L 1159 1991 
L 2875 3500 
L 3609 3500 
L 1753 1863 
L 3688 0 
L 2938 0 
L 1159 1709 
L 1159 0 
L 581 0 
L 581 4863 
z
" transform="scale(0.015625)"/>
       <path id="DejaVuSans-70" d="M 1159 525 
L 1159 -1331 
L 581 -1331 
L 581 3500 
L 1159 3500 
L 1159 2969 
Q 1341 3281 1617 3432 
Q 1894 3584 2278 3584 
Q 2916 3584 3314 3078 
Q 3713 2572 3713 1747 
Q 3713 922 3314 415 
Q 2916 -91 2278 -91 
Q 1894 -91 1617 61 
Q 1341 213 1159 525 
z
M 3116 1747 
Q 3116 2381 2855 2742 
Q 2594 3103 2138 3103 
Q 1681 3103 1420 2742 
Q 1159 2381 1159 1747 
Q 1159 1113 1420 752 
Q 1681 391 2138 391 
Q 2594 391 2855 752 
Q 3116 1113 3116 1747 
z
" transform="scale(0.015625)"/>
       <path id="DejaVuSans-6d" d="M 3328 2828 
Q 3544 3216 3844 3400 
Q 4144 3584 4550 3584 
Q 5097 3584 5394 3201 
Q 5691 2819 5691 2113 
L 5691 0 
L 5113 0 
L 5113 2094 
Q 5113 2597 4934 2840 
Q 4756 3084 4391 3084 
Q 3944 3084 3684 2787 
Q 3425 2491 3425 1978 
L 3425 0 
L 2847 0 
L 2847 2094 
Q 2847 2600 2669 2842 
Q 2491 3084 2119 3084 
Q 1678 3084 1418 2786 
Q 1159 2488 1159 1978 
L 1159 0 
L 581 0 
L 581 3500 
L 1159 3500 
L 1159 2956 
Q 1356 3278 1631 3431 
Q 1906 3584 2284 3584 
Q 2666 3584 2933 3390 
Q 3200 3197 3328 2828 
z
" transform="scale(0.015625)"/>
      </defs>
      <use xlink:href="#DejaVuSans-42"/>
      <use xlink:href="#DejaVuSans-45" transform="translate(68.603516 0)"/>
      <use xlink:href="#DejaVuSans-4b" transform="translate(131.787109 0)"/>
      <use xlink:href="#DejaVuSans-52" transform="translate(197.363281 0)"/>
      <use xlink:href="#DejaVuSans-4e" transform="translate(266.845703 0)"/>
      <use xlink:href="#DejaVuSans-20" transform="translate(341.650391 0)"/>
      <use xlink:href="#DejaVuSans-74" transform="translate(373.4375 0)"/>
      <use xlink:href="#DejaVuSans-6f" transform="translate(412.646484 0)"/>
      <use xlink:href="#DejaVuSans-6b" transform="translate(473.828125 0)"/>
      <use xlink:href="#DejaVuSans-65" transform="translate(528.113281 0)"/>
      <use xlink:href="#DejaVuSans-6e" transform="translate(589.636719 0)"/>
      <use xlink:href="#DejaVuSans-73" transform="translate(653.015625 0)"/>
      <use xlink:href="#DejaVuSans-20" transform="translate(705.115234 0)"/>
      <use xlink:href="#DejaVuSans-70" transform="translate(736.902344 0)"/>
      <use xlink:href="#DejaVuSans-65" transform="translate(800.378906 0)"/>
      <use xlink:href="#DejaVuSans-72" transform="translate(861.902344 0)"/>
      <use xlink:href="#DejaVuSans-20" transform="translate(903.015625 0)"/>
      <use xlink:href="#DejaVuSans-73" transform="translate(934.802734 0)"/>
      <use xlink:href="#DejaVuSans-61" transform="translate(986.902344 0)"/>
      <use xlink:href="#DejaVuSans-6d" transform="translate(1048.181641 0)"/>
      <use xlink:href="#DejaVuSans-70" transform="translate(1145.59375 0)"/>
      <use xlink:href="#DejaVuSans-6c" transform="translate(1209.070312 0)"/>
      <use xlink:href="#DejaVuSans-65" transform="translate(1236.853516 0)"/>
     </g>
    </g>
   </g>
   <g id="patch_3">
    <path d="M 98.366042 266.439551 
L 142.423542 266.439551 
L 142.423542 195.103224 
L 98.366042 195.103224 
L 98.366042 266.439551 
z
" clip-path="url(#p2c22441bcc)" style="fill: #2f6f9f; opacity: 0.75; stroke: #000000; stroke-linejoin: miter"/>
   </g>
   <g id="line2d_20">
    <path d="M 120.394792 266.439551 
L 120.394792 349.476545 
" clip-path="url(#p2c22441bcc)" style="fill: none; stroke: #000000; stroke-linecap: square"/>
   </g>
   <g id="line2d_21">
    <path d="M 120.394792 195.103224 
L 120.394792 88.287455 
" clip-path="url(#p2c22441bcc)" style="fill: none; stroke: #000000; stroke-linecap: square"/>
   </g>
   <g id="line2d_22">
    <path d="M 109.380417 349.476545 
L 131.409167 349.476545 
" clip-path="url(#p2c22441bcc)" style="fill: none; stroke: #000000; stroke-linecap: square"/>
   </g>
   <g id="line2d_23">
    <path d="M 109.380417 88.287455 
L 131.409167 88.287455 
" clip-path="url(#p2c22441bcc)" style="fill: none; stroke: #000000; stroke-linecap: square"/>
   </g>
   <g id="patch_4">
    <path d="M 245.224375 265.307229 
L 289.281875 265.307229 
L 289.281875 195.291945 
L 245.224375 195.291945 
L 245.224375 265.307229 
z
" clip-path="url(#p2c22441bcc)" style="fill: #d98b2b; opacity: 0.75; stroke: #000000; stroke-linejoin: miter"/>
   </g>
   <g id="line2d_24">
    <path d="M 267.253125 265.307229 
L 267.253125 349.099105 
" clip-path="url(#p2c22441bcc)" style="fill: none; stroke: #000000; stroke-linecap: square"/>
   </g>
   <g id="line2d_25">
    <path d="M 267.253125 195.291945 
L 267.253125 90.5521 
" clip-path="url(#p2c22441bcc)" style="fill: none; stroke: #000000; stroke-linecap: square"/>
   </g>
   <g id="line2d_26">
    <path d="M 256.23875 349.099105 
L 278.2675 349.099105 
" clip-path="url(#p2c22441bcc)" style="fill: none; stroke: #000000; stroke-linecap: square"/>
   </g>
   <g id="line2d_27">
    <path d="M 256.23875 90.5521 
L 278.2675 90.5521 
" clip-path="url(#p2c22441bcc)" style="fill: none; stroke: #000000; stroke-linecap: square"/>
   </g>
   <g id="patch_5">
    <path d="M 392.082708 265.307229 
L 436.140208 265.307229 
L 436.140208 196.990429 
L 392.082708 196.990429 
L 392.082708 265.307229 
z
" clip-path="url(#p2c22441bcc)" style="fill: #4f8f46; opacity: 0.75; stroke: #000000; stroke-linejoin: miter"/>
   </g>
   <g id="line2d_28">
    <path d="M 414.111458 265.307229 
L 414.111458 348.721664 
" clip-path="url(#p2c22441bcc)" style="fill: none; stroke: #000000; stroke-linecap: square"/>
   </g>
   <g id="line2d_29">
    <path d="M 414.111458 196.990429 
L 414.111458 94.70395 
" clip-path="url(#p2c22441bcc)" style="fill: none; stroke: #000000; stroke-linecap: square"/>
   </g>
   <g id="line2d_30">
    <path d="M 403.097083 348.721664 
L 425.125833 348.721664 
" clip-path="url(#p2c22441bcc)" style="fill: none; stroke: #000000; stroke-linecap: square"/>
   </g>
   <g id="line2d_31">
    <path d="M 403.097083 94.70395 
L 425.125833 94.70395 
" clip-path="url(#p2c22441bcc)" style="fill: none; stroke: #000000; stroke-linecap: square"/>
   </g>
   <g id="line2d_32">
    <path d="M 98.366042 236.621721 
L 142.423542 236.621721 
" clip-path="url(#p2c22441bcc)" style="fill: none; stroke: #ff7f0e"/>
   </g>
   <g id="line2d_33">
    <path d="M 245.224375 235.86684 
L 289.281875 235.86684 
" clip-path="url(#p2c22441bcc)" style="fill: none; stroke: #ff7f0e"/>
   </g>
   <g id="line2d_34">
    <path d="M 392.082708 234.734517 
L 436.140208 234.734517 
" clip-path="url(#p2c22441bcc)" style="fill: none; stroke: #ff7f0e"/>
   </g>
   <g id="patch_6">
    <path d="M 46.965625 362.536 
L 46.965625 75.228 
" style="fill: none; stroke: #000000; stroke-width: 0.8; stroke-linejoin: miter; stroke-linecap: square"/>
   </g>
   <g id="patch_7">
    <path d="M 487.540625 362.536 
L 487.540625 75.228 
" style="fill: none; stroke: #000000; stroke-width: 0.8; stroke-linejoin: miter; stroke-linecap: square"/>
   </g>
   <g id="patch_8">
    <path d="M 46.965625 362.536 
L 487.540625 362.536 
" style="fill: none; stroke: #000000; stroke-width: 0.8; stroke-linejoin: miter; stroke-linecap: square"/>
   </g>
   <g id="patch_9">
    <path d="M 46.965625 75.228 
L 487.540625 75.228 
" style="fill: none; stroke: #000000; stroke-width: 0.8; stroke-linejoin: miter; stroke-linecap: square"/>
   </g>
   <g id="text_13">
    <!-- Target Sequence Lengths -->
    <g transform="translate(181.422187 69.228) scale(0.12 -0.12)">
     <defs>
      <path id="DejaVuSans-Bold-54" d="M 31 4666 
L 4331 4666 
L 4331 3756 
L 2784 3756 
L 2784 0 
L 1581 0 
L 1581 3756 
L 31 3756 
L 31 4666 
z
" transform="scale(0.015625)"/>
      <path id="DejaVuSans-Bold-61" d="M 2106 1575 
Q 1756 1575 1579 1456 
Q 1403 1338 1403 1106 
Q 1403 894 1545 773 
Q 1688 653 1941 653 
Q 2256 653 2472 879 
Q 2688 1106 2688 1447 
L 2688 1575 
L 2106 1575 
z
M 3816 1997 
L 3816 0 
L 2688 0 
L 2688 519 
Q 2463 200 2181 54 
Q 1900 -91 1497 -91 
Q 953 -91 614 226 
Q 275 544 275 1050 
Q 275 1666 698 1953 
Q 1122 2241 2028 2241 
L 2688 2241 
L 2688 2328 
Q 2688 2594 2478 2717 
Q 2269 2841 1825 2841 
Q 1466 2841 1156 2769 
Q 847 2697 581 2553 
L 581 3406 
Q 941 3494 1303 3539 
Q 1666 3584 2028 3584 
Q 2975 3584 3395 3211 
Q 3816 2838 3816 1997 
z
" transform="scale(0.015625)"/>
      <path id="DejaVuSans-Bold-72" d="M 3138 2547 
Q 2991 2616 2845 2648 
Q 2700 2681 2553 2681 
Q 2122 2681 1889 2404 
Q 1656 2128 1656 1613 
L 1656 0 
L 538 0 
L 538 3500 
L 1656 3500 
L 1656 2925 
Q 1872 3269 2151 3426 
Q 2431 3584 2822 3584 
Q 2878 3584 2943 3579 
Q 3009 3575 3134 3559 
L 3138 2547 
z
" transform="scale(0.015625)"/>
      <path id="DejaVuSans-Bold-67" d="M 2919 594 
Q 2688 288 2409 144 
Q 2131 0 1766 0 
Q 1125 0 706 504 
Q 288 1009 288 1791 
Q 288 2575 706 3076 
Q 1125 3578 1766 3578 
Q 2131 3578 2409 3434 
Q 2688 3291 2919 2981 
L 2919 3500 
L 4044 3500 
L 4044 353 
Q 4044 -491 3511 -936 
Q 2978 -1381 1966 -1381 
Q 1638 -1381 1331 -1331 
Q 1025 -1281 716 -1178 
L 716 -306 
Q 1009 -475 1290 -558 
Q 1572 -641 1856 -641 
Q 2406 -641 2662 -400 
Q 2919 -159 2919 353 
L 2919 594 
z
M 2181 2772 
Q 1834 2772 1640 2515 
Q 1447 2259 1447 1791 
Q 1447 1309 1634 1061 
Q 1822 813 2181 813 
Q 2531 813 2725 1069 
Q 2919 1325 2919 1791 
Q 2919 2259 2725 2515 
Q 2531 2772 2181 2772 
z
" transform="scale(0.015625)"/>
      <path id="DejaVuSans-Bold-65" d="M 4031 1759 
L 4031 1441 
L 1416 1441 
Q 1456 1047 1700 850 
Q 1944 653 2381 653 
Q 2734 653 3104 758 
Q 3475 863 3866 1075 
L 3866 213 
Q 3469 63 3072 -14 
Q 2675 -91 2278 -91 
Q 1328 -91 801 392 
Q 275 875 275 1747 
Q 275 2603 792 3093 
Q 1309 3584 2216 3584 
Q 3041 3584 3536 3087 
Q 4031 2591 4031 1759 
z
M 2881 2131 
Q 2881 2450 2695 2645 
Q 2509 2841 2209 2841 
Q 1884 2841 1681 2658 
Q 1478 2475 1428 2131 
L 2881 2131 
z
" transform="scale(0.015625)"/>
      <path id="DejaVuSans-Bold-74" d="M 1759 4494 
L 1759 3500 
L 2913 3500 
L 2913 2700 
L 1759 2700 
L 1759 1216 
Q 1759 972 1856 886 
Q 1953 800 2241 800 
L 2816 800 
L 2816 0 
L 1856 0 
Q 1194 0 917 276 
Q 641 553 641 1216 
L 641 2700 
L 84 2700 
L 84 3500 
L 641 3500 
L 641 4494 
L 1759 4494 
z
" transform="scale(0.015625)"/>
      <path id="DejaVuSans-Bold-20" transform="scale(0.015625)"/>
      <path id="DejaVuSans-Bold-53" d="M 3834 4519 
L 3834 3531 
Q 3450 3703 3084 3790 
Q 2719 3878 2394 3878 
Q 1963 3878 1756 3759 
Q 1550 3641 1550 3391 
Q 1550 3203 1689 3098 
Q 1828 2994 2194 2919 
L 2706 2816 
Q 3484 2659 3812 2340 
Q 4141 2022 4141 1434 
Q 4141 663 3683 286 
Q 3225 -91 2284 -91 
Q 1841 -91 1394 -6 
Q 947 78 500 244 
L 500 1259 
Q 947 1022 1364 901 
Q 1781 781 2169 781 
Q 2563 781 2772 912 
Q 2981 1044 2981 1288 
Q 2981 1506 2839 1625 
Q 2697 1744 2272 1838 
L 1806 1941 
Q 1106 2091 782 2419 
Q 459 2747 459 3303 
Q 459 4000 909 4375 
Q 1359 4750 2203 4750 
Q 2588 4750 2994 4692 
Q 3400 4634 3834 4519 
z
" transform="scale(0.015625)"/>
      <path id="DejaVuSans-Bold-71" d="M 2181 2772 
Q 1825 2772 1636 2509 
Q 1447 2247 1447 1747 
Q 1447 1247 1636 984 
Q 1825 722 2181 722 
Q 2541 722 2730 984 
Q 2919 1247 2919 1747 
Q 2919 2247 2730 2509 
Q 2541 2772 2181 2772 
z
M 2919 506 
Q 2688 197 2409 53 
Q 2131 -91 1766 -91 
Q 1119 -91 703 423 
Q 288 938 288 1747 
Q 288 2556 703 3067 
Q 1119 3578 1766 3578 
Q 2131 3578 2409 3434 
Q 2688 3291 2919 2981 
L 2919 3500 
L 4044 3500 
L 4044 -1331 
L 2919 -1331 
L 2919 506 
z
" transform="scale(0.015625)"/>
      <path id="DejaVuSans-Bold-75" d="M 500 1363 
L 500 3500 
L 1625 3500 
L 1625 3150 
Q 1625 2866 1622 2436 
Q 1619 2006 1619 1863 
Q 1619 1441 1641 1255 
Q 1663 1069 1716 984 
Q 1784 875 1895 815 
Q 2006 756 2150 756 
Q 2500 756 2700 1025 
Q 2900 1294 2900 1772 
L 2900 3500 
L 4019 3500 
L 4019 0 
L 2900 0 
L 2900 506 
Q 2647 200 2364 54 
Q 2081 -91 1741 -91 
Q 1134 -91 817 281 
Q 500 653 500 1363 
z
" transform="scale(0.015625)"/>
      <path id="DejaVuSans-Bold-6e" d="M 4056 2131 
L 4056 0 
L 2931 0 
L 2931 347 
L 2931 1631 
Q 2931 2084 2911 2256 
Q 2891 2428 2841 2509 
Q 2775 2619 2662 2680 
Q 2550 2741 2406 2741 
Q 2056 2741 1856 2470 
Q 1656 2200 1656 1722 
L 1656 0 
L 538 0 
L 538 3500 
L 1656 3500 
L 1656 2988 
Q 1909 3294 2193 3439 
Q 2478 3584 2822 3584 
Q 3428 3584 3742 3212 
Q 4056 2841 4056 2131 
z
" transform="scale(0.015625)"/>
      <path id="DejaVuSans-Bold-63" d="M 3366 3391 
L 3366 2478 
Q 3138 2634 2908 2709 
Q 2678 2784 2431 2784 
Q 1963 2784 1702 2511 
Q 1441 2238 1441 1747 
Q 1441 1256 1702 982 
Q 1963 709 2431 709 
Q 2694 709 2930 787 
Q 3166 866 3366 1019 
L 3366 103 
Q 3103 6 2833 -42 
Q 2563 -91 2291 -91 
Q 1344 -91 809 395 
Q 275 881 275 1747 
Q 275 2613 809 3098 
Q 1344 3584 2291 3584 
Q 2566 3584 2833 3536 
Q 3100 3488 3366 3391 
z
" transform="scale(0.015625)"/>
      <path id="DejaVuSans-Bold-4c" d="M 588 4666 
L 1791 4666 
L 1791 909 
L 3903 909 
L 3903 0 
L 588 0 
L 588 4666 
z
" transform="scale(0.015625)"/>
      <path id="DejaVuSans-Bold-68" d="M 4056 2131 
L 4056 0 
L 2931 0 
L 2931 347 
L 2931 1625 
Q 2931 2084 2911 2256 
Q 2891 2428 2841 2509 
Q 2775 2619 2662 2680 
Q 2550 2741 2406 2741 
Q 2056 2741 1856 2470 
Q 1656 2200 1656 1722 
L 1656 0 
L 538 0 
L 538 4863 
L 1656 4863 
L 1656 2988 
Q 1909 3294 2193 3439 
Q 2478 3584 2822 3584 
Q 3428 3584 3742 3212 
Q 4056 2841 4056 2131 
z
" transform="scale(0.015625)"/>
      <path id="DejaVuSans-Bold-73" d="M 3272 3391 
L 3272 2541 
Q 2913 2691 2578 2766 
Q 2244 2841 1947 2841 
Q 1628 2841 1473 2761 
Q 1319 2681 1319 2516 
Q 1319 2381 1436 2309 
Q 1553 2238 1856 2203 
L 2053 2175 
Q 2913 2066 3209 1816 
Q 3506 1566 3506 1031 
Q 3506 472 3093 190 
Q 2681 -91 1863 -91 
Q 1516 -91 1145 -36 
Q 775 19 384 128 
L 384 978 
Q 719 816 1070 734 
Q 1422 653 1784 653 
Q 2113 653 2278 743 
Q 2444 834 2444 1013 
Q 2444 1163 2330 1236 
Q 2216 1309 1875 1350 
L 1678 1375 
Q 931 1469 631 1722 
Q 331 1975 331 2491 
Q 331 3047 712 3315 
Q 1094 3584 1881 3584 
Q 2191 3584 2531 3537 
Q 2872 3491 3272 3391 
z
" transform="scale(0.015625)"/>
     </defs>
     <use xlink:href="#DejaVuSans-Bold-54"/>
     <use xlink:href="#DejaVuSans-Bold-61" transform="translate(55.337891 0)"/>
     <use xlink:href="#DejaVuSans-Bold-72" transform="translate(122.818359 0)"/>
     <use xlink:href="#DejaVuSans-Bold-67" transform="translate(172.134766 0)"/>
     <use xlink:href="#DejaVuSans-Bold-65" transform="translate(243.716797 0)"/>
     <use xlink:href="#DejaVuSans-Bold-74" transform="translate(311.539062 0)"/>
     <use xlink:href="#DejaVuSans-Bold-20" transform="translate(359.341797 0)"/>
     <use xlink:href="#DejaVuSans-Bold-53" transform="translate(394.15625 0)"/>
     <use xlink:href="#DejaVuSans-Bold-65" transform="translate(466.177734 0)"/>
     <use xlink:href="#DejaVuSans-Bold-71" transform="translate(534 0)"/>
     <use xlink:href="#DejaVuSans-Bold-75" transform="translate(605.582031 0)"/>
     <use xlink:href="#DejaVuSans-Bold-65" transform="translate(676.773438 0)"/>
     <use xlink:href="#DejaVuSans-Bold-6e" transform="translate(744.595703 0)"/>
     <use xlink:href="#DejaVuSans-Bold-63" transform="translate(815.787109 0)"/>
     <use xlink:href="#DejaVuSans-Bold-65" transform="translate(875.064453 0)"/>
     <use xlink:href="#DejaVuSans-Bold-20" transform="translate(942.886719 0)"/>
     <use xlink:href="#DejaVuSans-Bold-4c" transform="translate(977.701172 0)"/>
     <use xlink:href="#DejaVuSans-Bold-65" transform="translate(1041.421875 0)"/>
     <use xlink:href="#DejaVuSans-Bold-6e" transform="translate(1109.244141 0)"/>
     <use xlink:href="#DejaVuSans-Bold-67" transform="translate(1180.435547 0)"/>
     <use xlink:href="#DejaVuSans-Bold-74" transform="translate(1252.017578 0)"/>
     <use xlink:href="#DejaVuSans-Bold-68" transform="translate(1299.820312 0)"/>
     <use xlink:href="#DejaVuSans-Bold-73" transform="translate(1371.011719 0)"/>
    </g>
   </g>
  </g>
  <g id="axes_2">
   <g id="patch_10">
    <path d="M 553.553125 362.536 
L 994.128125 362.536 
L 994.128125 75.228 
L 553.553125 75.228 
z
" style="fill: #ffffff"/>
   </g>
   <g id="patch_11">
    <path d="M 573.579261 362.536 
L 581.753195 362.536 
L 581.753195 362.536 
L 573.579261 362.536 
z
" clip-path="url(#p6a5c12d9af)" style="fill: #2f6f9f; opacity: 0.35"/>
   </g>
   <g id="patch_12">
    <path d="M 581.753195 362.536 
L 589.927128 362.536 
L 589.927128 359.027207 
L 581.753195 359.027207 
z
" clip-path="url(#p6a5c12d9af)" style="fill: #2f6f9f; opacity: 0.35"/>
   </g>
   <g id="patch_13">
    <path d="M 589.927128 362.536 
L 598.101061 362.536 
L 598.101061 353.269187 
L 589.927128 353.269187 
z
" clip-path="url(#p6a5c12d9af)" style="fill: #2f6f9f; opacity: 0.35"/>
   </g>
   <g id="patch_14">
    <path d="M 598.101061 362.536 
L 606.274994 362.536 
L 606.274994 350.390177 
L 598.101061 350.390177 
z
" clip-path="url(#p6a5c12d9af)" style="fill: #2f6f9f; opacity: 0.35"/>
   </g>
   <g id="patch_15">
    <path d="M 606.274994 362.536 
L 614.448927 362.536 
L 614.448927 349.400518 
L 606.274994 349.400518 
z
" clip-path="url(#p6a5c12d9af)" style="fill: #2f6f9f; opacity: 0.35"/>
   </g>
   <g id="patch_16">
    <path d="M 614.448927 362.536 
L 622.622861 362.536 
L 622.622861 347.241261 
L 614.448927 347.241261 
z
" clip-path="url(#p6a5c12d9af)" style="fill: #2f6f9f; opacity: 0.35"/>
   </g>
   <g id="patch_17">
    <path d="M 622.622861 362.536 
L 630.796794 362.536 
L 630.796794 331.946521 
L 622.622861 331.946521 
z
" clip-path="url(#p6a5c12d9af)" style="fill: #2f6f9f; opacity: 0.35"/>
   </g>
   <g id="patch_18">
    <path d="M 630.796794 362.536 
L 638.970727 362.536 
L 638.970727 313.322927 
L 630.796794 313.322927 
z
" clip-path="url(#p6a5c12d9af)" style="fill: #2f6f9f; opacity: 0.35"/>
   </g>
   <g id="patch_19">
    <path d="M 638.970727 362.536 
L 647.14466 362.536 
L 647.14466 289.301189 
L 638.970727 289.301189 
z
" clip-path="url(#p6a5c12d9af)" style="fill: #2f6f9f; opacity: 0.35"/>
   </g>
   <g id="patch_20">
    <path d="M 647.14466 362.536 
L 655.318593 362.536 
L 655.318593 254.84304 
L 647.14466 254.84304 
z
" clip-path="url(#p6a5c12d9af)" style="fill: #2f6f9f; opacity: 0.35"/>
   </g>
   <g id="patch_21">
    <path d="M 655.318593 362.536 
L 663.492527 362.536 
L 663.492527 211.118079 
L 655.318593 211.118079 
z
" clip-path="url(#p6a5c12d9af)" style="fill: #2f6f9f; opacity: 0.35"/>
   </g>
   <g id="patch_22">
    <path d="M 663.492527 362.536 
L 671.66646 362.536 
L 671.66646 166.853304 
L 663.492527 166.853304 
z
" clip-path="url(#p6a5c12d9af)" style="fill: #2f6f9f; opacity: 0.35"/>
   </g>
   <g id="patch_23">
    <path d="M 671.66646 362.536 
L 679.840393 362.536 
L 679.840393 151.378626 
L 671.66646 151.378626 
z
" clip-path="url(#p6a5c12d9af)" style="fill: #2f6f9f; opacity: 0.35"/>
   </g>
   <g id="patch_24">
    <path d="M 679.840393 362.536 
L 688.014326 362.536 
L 688.014326 134.734351 
L 679.840393 134.734351 
z
" clip-path="url(#p6a5c12d9af)" style="fill: #2f6f9f; opacity: 0.35"/>
   </g>
   <g id="patch_25">
    <path d="M 688.014326 362.536 
L 696.18826 362.536 
L 696.18826 122.588528 
L 688.014326 122.588528 
z
" clip-path="url(#p6a5c12d9af)" style="fill: #2f6f9f; opacity: 0.35"/>
   </g>
   <g id="patch_26">
    <path d="M 696.18826 362.536 
L 704.362193 362.536 
L 704.362193 138.60302 
L 696.18826 138.60302 
z
" clip-path="url(#p6a5c12d9af)" style="fill: #2f6f9f; opacity: 0.35"/>
   </g>
   <g id="patch_27">
    <path d="M 704.362193 362.536 
L 712.536126 362.536 
L 712.536126 139.412742 
L 704.362193 139.412742 
z
" clip-path="url(#p6a5c12d9af)" style="fill: #2f6f9f; opacity: 0.35"/>
   </g>
   <g id="patch_28">
    <path d="M 712.536126 362.536 
L 720.710059 362.536 
L 720.710059 153.717822 
L 712.536126 153.717822 
z
" clip-path="url(#p6a5c12d9af)" style="fill: #2f6f9f; opacity: 0.35"/>
   </g>
   <g id="patch_29">
    <path d="M 720.710059 362.536 
L 728.883992 362.536 
L 728.883992 171.891571 
L 720.710059 171.891571 
z
" clip-path="url(#p6a5c12d9af)" style="fill: #2f6f9f; opacity: 0.35"/>
   </g>
   <g id="patch_30">
    <path d="M 728.883992 362.536 
L 737.057926 362.536 
L 737.057926 178.729219 
L 728.883992 178.729219 
z
" clip-path="url(#p6a5c12d9af)" style="fill: #2f6f9f; opacity: 0.35"/>
   </g>
   <g id="patch_31">
    <path d="M 737.057926 362.536 
L 745.231859 362.536 
L 745.231859 201.941235 
L 737.057926 201.941235 
z
" clip-path="url(#p6a5c12d9af)" style="fill: #2f6f9f; opacity: 0.35"/>
   </g>
   <g id="patch_32">
    <path d="M 745.231859 362.536 
L 753.405792 362.536 
L 753.405792 219.485201 
L 745.231859 219.485201 
z
" clip-path="url(#p6a5c12d9af)" style="fill: #2f6f9f; opacity: 0.35"/>
   </g>
   <g id="patch_33">
    <path d="M 753.405792 362.536 
L 761.579725 362.536 
L 761.579725 247.195671 
L 753.405792 247.195671 
z
" clip-path="url(#p6a5c12d9af)" style="fill: #2f6f9f; opacity: 0.35"/>
   </g>
   <g id="patch_34">
    <path d="M 761.579725 362.536 
L 769.753658 362.536 
L 769.753658 253.583473 
L 761.579725 253.583473 
z
" clip-path="url(#p6a5c12d9af)" style="fill: #2f6f9f; opacity: 0.35"/>
   </g>
   <g id="patch_35">
    <path d="M 769.753658 362.536 
L 777.927592 362.536 
L 777.927592 263.390101 
L 769.753658 263.390101 
z
" clip-path="url(#p6a5c12d9af)" style="fill: #2f6f9f; opacity: 0.35"/>
   </g>
   <g id="patch_36">
    <path d="M 777.927592 362.536 
L 786.101525 362.536 
L 786.101525 269.418027 
L 777.927592 269.418027 
z
" clip-path="url(#p6a5c12d9af)" style="fill: #2f6f9f; opacity: 0.35"/>
   </g>
   <g id="patch_37">
    <path d="M 786.101525 362.536 
L 794.275458 362.536 
L 794.275458 279.6745 
L 786.101525 279.6745 
z
" clip-path="url(#p6a5c12d9af)" style="fill: #2f6f9f; opacity: 0.35"/>
   </g>
   <g id="patch_38">
    <path d="M 794.275458 362.536 
L 802.449391 362.536 
L 802.449391 297.668311 
L 794.275458 297.668311 
z
" clip-path="url(#p6a5c12d9af)" style="fill: #2f6f9f; opacity: 0.35"/>
   </g>
   <g id="patch_39">
    <path d="M 802.449391 362.536 
L 810.623324 362.536 
L 810.623324 297.668311 
L 802.449391 297.668311 
z
" clip-path="url(#p6a5c12d9af)" style="fill: #2f6f9f; opacity: 0.35"/>
   </g>
   <g id="patch_40">
    <path d="M 810.623324 362.536 
L 818.797258 362.536 
L 818.797258 308.19469 
L 810.623324 308.19469 
z
" clip-path="url(#p6a5c12d9af)" style="fill: #2f6f9f; opacity: 0.35"/>
   </g>
   <g id="patch_41">
    <path d="M 818.797258 362.536 
L 826.971191 362.536 
L 826.971191 314.222617 
L 818.797258 314.222617 
z
" clip-path="url(#p6a5c12d9af)" style="fill: #2f6f9f; opacity: 0.35"/>
   </g>
   <g id="patch_42">
    <path d="M 826.971191 362.536 
L 835.145124 362.536 
L 835.145124 321.869987 
L 826.971191 321.869987 
z
" clip-path="url(#p6a5c12d9af)" style="fill: #2f6f9f; opacity: 0.35"/>
   </g>
   <g id="patch_43">
    <path d="M 835.145124 362.536 
L 843.319057 362.536 
L 843.319057 326.998223 
L 835.145124 326.998223 
z
" clip-path="url(#p6a5c12d9af)" style="fill: #2f6f9f; opacity: 0.35"/>
   </g>
   <g id="patch_44">
    <path d="M 843.319057 362.536 
L 851.49299 362.536 
L 851.49299 332.756243 
L 843.319057 332.756243 
z
" clip-path="url(#p6a5c12d9af)" style="fill: #2f6f9f; opacity: 0.35"/>
   </g>
   <g id="patch_45">
    <path d="M 851.49299 362.536 
L 859.666924 362.536 
L 859.666924 339.863798 
L 851.49299 339.863798 
z
" clip-path="url(#p6a5c12d9af)" style="fill: #2f6f9f; opacity: 0.35"/>
   </g>
   <g id="patch_46">
    <path d="M 859.666924 362.536 
L 867.840857 362.536 
L 867.840857 334.825531 
L 859.666924 334.825531 
z
" clip-path="url(#p6a5c12d9af)" style="fill: #2f6f9f; opacity: 0.35"/>
   </g>
   <g id="patch_47">
    <path d="M 867.840857 362.536 
L 876.01479 362.536 
L 876.01479 342.652839 
L 867.840857 342.652839 
z
" clip-path="url(#p6a5c12d9af)" style="fill: #2f6f9f; opacity: 0.35"/>
   </g>
   <g id="patch_48">
    <path d="M 876.01479 362.536 
L 884.188723 362.536 
L 884.188723 342.023055 
L 876.01479 342.023055 
z
" clip-path="url(#p6a5c12d9af)" style="fill: #2f6f9f; opacity: 0.35"/>
   </g>
   <g id="patch_49">
    <path d="M 884.188723 362.536 
L 892.362657 362.536 
L 892.362657 347.601137 
L 884.188723 347.601137 
z
" clip-path="url(#p6a5c12d9af)" style="fill: #2f6f9f; opacity: 0.35"/>
   </g>
   <g id="patch_50">
    <path d="M 892.362657 362.536 
L 900.53659 362.536 
L 900.53659 349.22058 
L 892.362657 349.22058 
z
" clip-path="url(#p6a5c12d9af)" style="fill: #2f6f9f; opacity: 0.35"/>
   </g>
   <g id="patch_51">
    <path d="M 900.53659 362.536 
L 908.710523 362.536 
L 908.710523 351.469806 
L 900.53659 351.469806 
z
" clip-path="url(#p6a5c12d9af)" style="fill: #2f6f9f; opacity: 0.35"/>
   </g>
   <g id="patch_52">
    <path d="M 908.710523 362.536 
L 916.884456 362.536 
L 916.884456 350.929992 
L 908.710523 350.929992 
z
" clip-path="url(#p6a5c12d9af)" style="fill: #2f6f9f; opacity: 0.35"/>
   </g>
   <g id="patch_53">
    <path d="M 916.884456 362.536 
L 925.058389 362.536 
L 925.058389 350.570116 
L 916.884456 350.570116 
z
" clip-path="url(#p6a5c12d9af)" style="fill: #2f6f9f; opacity: 0.35"/>
   </g>
   <g id="patch_54">
    <path d="M 925.058389 362.536 
L 933.232323 362.536 
L 933.232323 353.629063 
L 925.058389 353.629063 
z
" clip-path="url(#p6a5c12d9af)" style="fill: #2f6f9f; opacity: 0.35"/>
   </g>
   <g id="patch_55">
    <path d="M 933.232323 362.536 
L 941.406256 362.536 
L 941.406256 354.258847 
L 933.232323 354.258847 
z
" clip-path="url(#p6a5c12d9af)" style="fill: #2f6f9f; opacity: 0.35"/>
   </g>
   <g id="patch_56">
    <path d="M 941.406256 362.536 
L 949.580189 362.536 
L 949.580189 357.047888 
L 941.406256 357.047888 
z
" clip-path="url(#p6a5c12d9af)" style="fill: #2f6f9f; opacity: 0.35"/>
   </g>
   <g id="patch_57">
    <path d="M 949.580189 362.536 
L 957.754122 362.536 
L 957.754122 356.867949 
L 949.580189 356.867949 
z
" clip-path="url(#p6a5c12d9af)" style="fill: #2f6f9f; opacity: 0.35"/>
   </g>
   <g id="patch_58">
    <path d="M 957.754122 362.536 
L 965.928055 362.536 
L 965.928055 357.227826 
L 957.754122 357.227826 
z
" clip-path="url(#p6a5c12d9af)" style="fill: #2f6f9f; opacity: 0.35"/>
   </g>
   <g id="patch_59">
    <path d="M 965.928055 362.536 
L 974.101989 362.536 
L 974.101989 319.170915 
L 965.928055 319.170915 
z
" clip-path="url(#p6a5c12d9af)" style="fill: #2f6f9f; opacity: 0.35"/>
   </g>
   <g id="patch_60">
    <path d="M 573.579261 362.536 
L 581.753195 362.536 
L 581.753195 362.536 
L 573.579261 362.536 
z
" clip-path="url(#p6a5c12d9af)" style="fill: #d98b2b; opacity: 0.35"/>
   </g>
   <g id="patch_61">
    <path d="M 581.753195 362.536 
L 589.927128 362.536 
L 589.927128 360.916907 
L 581.753195 360.916907 
z
" clip-path="url(#p6a5c12d9af)" style="fill: #d98b2b; opacity: 0.35"/>
   </g>
   <g id="patch_62">
    <path d="M 589.927128 362.536 
L 598.101061 362.536 
L 598.101061 352.011897 
L 589.927128 352.011897 
z
" clip-path="url(#p6a5c12d9af)" style="fill: #d98b2b; opacity: 0.35"/>
   </g>
   <g id="patch_63">
    <path d="M 598.101061 362.536 
L 606.274994 362.536 
L 606.274994 355.250083 
L 598.101061 355.250083 
z
" clip-path="url(#p6a5c12d9af)" style="fill: #d98b2b; opacity: 0.35"/>
   </g>
   <g id="patch_64">
    <path d="M 606.274994 362.536 
L 614.448927 362.536 
L 614.448927 350.392805 
L 606.274994 350.392805 
z
" clip-path="url(#p6a5c12d9af)" style="fill: #d98b2b; opacity: 0.35"/>
   </g>
   <g id="patch_65">
    <path d="M 614.448927 362.536 
L 622.622861 362.536 
L 622.622861 345.535527 
L 614.448927 345.535527 
z
" clip-path="url(#p6a5c12d9af)" style="fill: #d98b2b; opacity: 0.35"/>
   </g>
   <g id="patch_66">
    <path d="M 622.622861 362.536 
L 630.796794 362.536 
L 630.796794 332.582785 
L 622.622861 332.582785 
z
" clip-path="url(#p6a5c12d9af)" style="fill: #d98b2b; opacity: 0.35"/>
   </g>
   <g id="patch_67">
    <path d="M 630.796794 362.536 
L 638.970727 362.536 
L 638.970727 318.820497 
L 630.796794 318.820497 
z
" clip-path="url(#p6a5c12d9af)" style="fill: #d98b2b; opacity: 0.35"/>
   </g>
   <g id="patch_68">
    <path d="M 638.970727 362.536 
L 647.14466 362.536 
L 647.14466 292.915014 
L 638.970727 292.915014 
z
" clip-path="url(#p6a5c12d9af)" style="fill: #d98b2b; opacity: 0.35"/>
   </g>
   <g id="patch_69">
    <path d="M 647.14466 362.536 
L 655.318593 362.536 
L 655.318593 260.53316 
L 647.14466 260.53316 
z
" clip-path="url(#p6a5c12d9af)" style="fill: #d98b2b; opacity: 0.35"/>
   </g>
   <g id="patch_70">
    <path d="M 655.318593 362.536 
L 663.492527 362.536 
L 663.492527 215.198564 
L 655.318593 215.198564 
z
" clip-path="url(#p6a5c12d9af)" style="fill: #d98b2b; opacity: 0.35"/>
   </g>
   <g id="patch_71">
    <path d="M 663.492527 362.536 
L 671.66646 362.536 
L 671.66646 167.435329 
L 663.492527 167.435329 
z
" clip-path="url(#p6a5c12d9af)" style="fill: #d98b2b; opacity: 0.35"/>
   </g>
   <g id="patch_72">
    <path d="M 671.66646 362.536 
L 679.840393 362.536 
L 679.840393 143.958485 
L 671.66646 143.958485 
z
" clip-path="url(#p6a5c12d9af)" style="fill: #d98b2b; opacity: 0.35"/>
   </g>
   <g id="patch_73">
    <path d="M 679.840393 362.536 
L 688.014326 362.536 
L 688.014326 166.625783 
L 679.840393 166.625783 
z
" clip-path="url(#p6a5c12d9af)" style="fill: #d98b2b; opacity: 0.35"/>
   </g>
   <g id="patch_74">
    <path d="M 688.014326 362.536 
L 696.18826 362.536 
L 696.18826 88.909333 
L 688.014326 88.909333 
z
" clip-path="url(#p6a5c12d9af)" style="fill: #d98b2b; opacity: 0.35"/>
   </g>
   <g id="patch_75">
    <path d="M 696.18826 362.536 
L 704.362193 362.536 
L 704.362193 149.62531 
L 696.18826 149.62531 
z
" clip-path="url(#p6a5c12d9af)" style="fill: #d98b2b; opacity: 0.35"/>
   </g>
   <g id="patch_76">
    <path d="M 704.362193 362.536 
L 712.536126 362.536 
L 712.536126 127.767558 
L 704.362193 127.767558 
z
" clip-path="url(#p6a5c12d9af)" style="fill: #d98b2b; opacity: 0.35"/>
   </g>
   <g id="patch_77">
    <path d="M 712.536126 362.536 
L 720.710059 362.536 
L 720.710059 152.053949 
L 712.536126 152.053949 
z
" clip-path="url(#p6a5c12d9af)" style="fill: #d98b2b; opacity: 0.35"/>
   </g>
   <g id="patch_78">
    <path d="M 720.710059 362.536 
L 728.883992 362.536 
L 728.883992 151.244402 
L 720.710059 151.244402 
z
" clip-path="url(#p6a5c12d9af)" style="fill: #d98b2b; opacity: 0.35"/>
   </g>
   <g id="patch_79">
    <path d="M 728.883992 362.536 
L 737.057926 362.536 
L 737.057926 186.054895 
L 728.883992 186.054895 
z
" clip-path="url(#p6a5c12d9af)" style="fill: #d98b2b; opacity: 0.35"/>
   </g>
   <g id="patch_80">
    <path d="M 737.057926 362.536 
L 745.231859 362.536 
L 745.231859 214.389018 
L 737.057926 214.389018 
z
" clip-path="url(#p6a5c12d9af)" style="fill: #d98b2b; opacity: 0.35"/>
   </g>
   <g id="patch_81">
    <path d="M 745.231859 362.536 
L 753.405792 362.536 
L 753.405792 228.151306 
L 745.231859 228.151306 
z
" clip-path="url(#p6a5c12d9af)" style="fill: #d98b2b; opacity: 0.35"/>
   </g>
   <g id="patch_82">
    <path d="M 753.405792 362.536 
L 761.579725 362.536 
L 761.579725 228.151306 
L 753.405792 228.151306 
z
" clip-path="url(#p6a5c12d9af)" style="fill: #d98b2b; opacity: 0.35"/>
   </g>
   <g id="patch_83">
    <path d="M 761.579725 362.536 
L 769.753658 362.536 
L 769.753658 229.770398 
L 761.579725 229.770398 
z
" clip-path="url(#p6a5c12d9af)" style="fill: #d98b2b; opacity: 0.35"/>
   </g>
   <g id="patch_84">
    <path d="M 769.753658 362.536 
L 777.927592 362.536 
L 777.927592 274.295448 
L 769.753658 274.295448 
z
" clip-path="url(#p6a5c12d9af)" style="fill: #d98b2b; opacity: 0.35"/>
   </g>
   <g id="patch_85">
    <path d="M 777.927592 362.536 
L 786.101525 362.536 
L 786.101525 271.866809 
L 777.927592 271.866809 
z
" clip-path="url(#p6a5c12d9af)" style="fill: #d98b2b; opacity: 0.35"/>
   </g>
   <g id="patch_86">
    <path d="M 786.101525 362.536 
L 794.275458 362.536 
L 794.275458 281.581365 
L 786.101525 281.581365 
z
" clip-path="url(#p6a5c12d9af)" style="fill: #d98b2b; opacity: 0.35"/>
   </g>
   <g id="patch_87">
    <path d="M 794.275458 362.536 
L 802.449391 362.536 
L 802.449391 288.867282 
L 794.275458 288.867282 
z
" clip-path="url(#p6a5c12d9af)" style="fill: #d98b2b; opacity: 0.35"/>
   </g>
   <g id="patch_88">
    <path d="M 802.449391 362.536 
L 810.623324 362.536 
L 810.623324 296.153199 
L 802.449391 296.153199 
z
" clip-path="url(#p6a5c12d9af)" style="fill: #d98b2b; opacity: 0.35"/>
   </g>
   <g id="patch_89">
    <path d="M 810.623324 362.536 
L 818.797258 362.536 
L 818.797258 313.963219 
L 810.623324 313.963219 
z
" clip-path="url(#p6a5c12d9af)" style="fill: #d98b2b; opacity: 0.35"/>
   </g>
   <g id="patch_90">
    <path d="M 818.797258 362.536 
L 826.971191 362.536 
L 826.971191 315.582312 
L 818.797258 315.582312 
z
" clip-path="url(#p6a5c12d9af)" style="fill: #d98b2b; opacity: 0.35"/>
   </g>
   <g id="patch_91">
    <path d="M 826.971191 362.536 
L 835.145124 362.536 
L 835.145124 332.582785 
L 826.971191 332.582785 
z
" clip-path="url(#p6a5c12d9af)" style="fill: #d98b2b; opacity: 0.35"/>
   </g>
   <g id="patch_92">
    <path d="M 835.145124 362.536 
L 843.319057 362.536 
L 843.319057 330.963692 
L 835.145124 330.963692 
z
" clip-path="url(#p6a5c12d9af)" style="fill: #d98b2b; opacity: 0.35"/>
   </g>
   <g id="patch_93">
    <path d="M 843.319057 362.536 
L 851.49299 362.536 
L 851.49299 333.392331 
L 843.319057 333.392331 
z
" clip-path="url(#p6a5c12d9af)" style="fill: #d98b2b; opacity: 0.35"/>
   </g>
   <g id="patch_94">
    <path d="M 851.49299 362.536 
L 859.666924 362.536 
L 859.666924 330.154146 
L 851.49299 330.154146 
z
" clip-path="url(#p6a5c12d9af)" style="fill: #d98b2b; opacity: 0.35"/>
   </g>
   <g id="patch_95">
    <path d="M 859.666924 362.536 
L 867.840857 362.536 
L 867.840857 336.630517 
L 859.666924 336.630517 
z
" clip-path="url(#p6a5c12d9af)" style="fill: #d98b2b; opacity: 0.35"/>
   </g>
   <g id="patch_96">
    <path d="M 867.840857 362.536 
L 876.01479 362.536 
L 876.01479 343.916434 
L 867.840857 343.916434 
z
" clip-path="url(#p6a5c12d9af)" style="fill: #d98b2b; opacity: 0.35"/>
   </g>
   <g id="patch_97">
    <path d="M 876.01479 362.536 
L 884.188723 362.536 
L 884.188723 347.154619 
L 876.01479 347.154619 
z
" clip-path="url(#p6a5c12d9af)" style="fill: #d98b2b; opacity: 0.35"/>
   </g>
   <g id="patch_98">
    <path d="M 884.188723 362.536 
L 892.362657 362.536 
L 892.362657 341.487795 
L 884.188723 341.487795 
z
" clip-path="url(#p6a5c12d9af)" style="fill: #d98b2b; opacity: 0.35"/>
   </g>
   <g id="patch_99">
    <path d="M 892.362657 362.536 
L 900.53659 362.536 
L 900.53659 345.535527 
L 892.362657 345.535527 
z
" clip-path="url(#p6a5c12d9af)" style="fill: #d98b2b; opacity: 0.35"/>
   </g>
   <g id="patch_100">
    <path d="M 900.53659 362.536 
L 908.710523 362.536 
L 908.710523 352.821444 
L 900.53659 352.821444 
z
" clip-path="url(#p6a5c12d9af)" style="fill: #d98b2b; opacity: 0.35"/>
   </g>
   <g id="patch_101">
    <path d="M 908.710523 362.536 
L 916.884456 362.536 
L 916.884456 352.011897 
L 908.710523 352.011897 
z
" clip-path="url(#p6a5c12d9af)" style="fill: #d98b2b; opacity: 0.35"/>
   </g>
   <g id="patch_102">
    <path d="M 916.884456 362.536 
L 925.058389 362.536 
L 925.058389 353.63099 
L 916.884456 353.63099 
z
" clip-path="url(#p6a5c12d9af)" style="fill: #d98b2b; opacity: 0.35"/>
   </g>
   <g id="patch_103">
    <path d="M 925.058389 362.536 
L 933.232323 362.536 
L 933.232323 351.202351 
L 925.058389 351.202351 
z
" clip-path="url(#p6a5c12d9af)" style="fill: #d98b2b; opacity: 0.35"/>
   </g>
   <g id="patch_104">
    <path d="M 933.232323 362.536 
L 941.406256 362.536 
L 941.406256 355.250083 
L 933.232323 355.250083 
z
" clip-path="url(#p6a5c12d9af)" style="fill: #d98b2b; opacity: 0.35"/>
   </g>
   <g id="patch_105">
    <path d="M 941.406256 362.536 
L 949.580189 362.536 
L 949.580189 356.059629 
L 941.406256 356.059629 
z
" clip-path="url(#p6a5c12d9af)" style="fill: #d98b2b; opacity: 0.35"/>
   </g>
   <g id="patch_106">
    <path d="M 949.580189 362.536 
L 957.754122 362.536 
L 957.754122 356.869176 
L 949.580189 356.869176 
z
" clip-path="url(#p6a5c12d9af)" style="fill: #d98b2b; opacity: 0.35"/>
   </g>
   <g id="patch_107">
    <path d="M 957.754122 362.536 
L 965.928055 362.536 
L 965.928055 356.059629 
L 957.754122 356.059629 
z
" clip-path="url(#p6a5c12d9af)" style="fill: #d98b2b; opacity: 0.35"/>
   </g>
   <g id="patch_108">
    <path d="M 965.928055 362.536 
L 974.101989 362.536 
L 974.101989 322.868229 
L 965.928055 322.868229 
z
" clip-path="url(#p6a5c12d9af)" style="fill: #d98b2b; opacity: 0.35"/>
   </g>
   <g id="patch_109">
    <path d="M 573.579261 362.536 
L 581.753195 362.536 
L 581.753195 362.536 
L 573.579261 362.536 
z
" clip-path="url(#p6a5c12d9af)" style="fill: #4f8f46; opacity: 0.35"/>
   </g>
   <g id="patch_110">
    <path d="M 581.753195 362.536 
L 589.927128 362.536 
L 589.927128 359.604895 
L 581.753195 359.604895 
z
" clip-path="url(#p6a5c12d9af)" style="fill: #4f8f46; opacity: 0.35"/>
   </g>
   <g id="patch_111">
    <path d="M 589.927128 362.536 
L 598.101061 362.536 
L 598.101061 353.742684 
L 589.927128 353.742684 
z
" clip-path="url(#p6a5c12d9af)" style="fill: #4f8f46; opacity: 0.35"/>
   </g>
   <g id="patch_112">
    <path d="M 598.101061 362.536 
L 606.274994 362.536 
L 606.274994 348.857509 
L 598.101061 348.857509 
z
" clip-path="url(#p6a5c12d9af)" style="fill: #4f8f46; opacity: 0.35"/>
   </g>
   <g id="patch_113">
    <path d="M 606.274994 362.536 
L 614.448927 362.536 
L 614.448927 352.277132 
L 606.274994 352.277132 
z
" clip-path="url(#p6a5c12d9af)" style="fill: #4f8f46; opacity: 0.35"/>
   </g>
   <g id="patch_114">
    <path d="M 614.448927 362.536 
L 622.622861 362.536 
L 622.622861 347.880474 
L 614.448927 347.880474 
z
" clip-path="url(#p6a5c12d9af)" style="fill: #4f8f46; opacity: 0.35"/>
   </g>
   <g id="patch_115">
    <path d="M 622.622861 362.536 
L 630.796794 362.536 
L 630.796794 338.598641 
L 622.622861 338.598641 
z
" clip-path="url(#p6a5c12d9af)" style="fill: #4f8f46; opacity: 0.35"/>
   </g>
   <g id="patch_116">
    <path d="M 630.796794 362.536 
L 638.970727 362.536 
L 638.970727 324.431633 
L 630.796794 324.431633 
z
" clip-path="url(#p6a5c12d9af)" style="fill: #4f8f46; opacity: 0.35"/>
   </g>
   <g id="patch_117">
    <path d="M 638.970727 362.536 
L 647.14466 362.536 
L 647.14466 299.028721 
L 638.970727 299.028721 
z
" clip-path="url(#p6a5c12d9af)" style="fill: #4f8f46; opacity: 0.35"/>
   </g>
   <g id="patch_118">
    <path d="M 647.14466 362.536 
L 655.318593 362.536 
L 655.318593 258.970284 
L 647.14466 258.970284 
z
" clip-path="url(#p6a5c12d9af)" style="fill: #4f8f46; opacity: 0.35"/>
   </g>
   <g id="patch_119">
    <path d="M 655.318593 362.536 
L 663.492527 362.536 
L 663.492527 199.859663 
L 655.318593 199.859663 
z
" clip-path="url(#p6a5c12d9af)" style="fill: #4f8f46; opacity: 0.35"/>
   </g>
   <g id="patch_120">
    <path d="M 663.492527 362.536 
L 671.66646 362.536 
L 671.66646 166.151954 
L 663.492527 166.151954 
z
" clip-path="url(#p6a5c12d9af)" style="fill: #4f8f46; opacity: 0.35"/>
   </g>
   <g id="patch_121">
    <path d="M 671.66646 362.536 
L 679.840393 362.536 
L 679.840393 163.709366 
L 671.66646 163.709366 
z
" clip-path="url(#p6a5c12d9af)" style="fill: #4f8f46; opacity: 0.35"/>
   </g>
   <g id="patch_122">
    <path d="M 679.840393 362.536 
L 688.014326 362.536 
L 688.014326 140.749042 
L 679.840393 140.749042 
z
" clip-path="url(#p6a5c12d9af)" style="fill: #4f8f46; opacity: 0.35"/>
   </g>
   <g id="patch_123">
    <path d="M 688.014326 362.536 
L 696.18826 362.536 
L 696.18826 135.863867 
L 688.014326 135.863867 
z
" clip-path="url(#p6a5c12d9af)" style="fill: #4f8f46; opacity: 0.35"/>
   </g>
   <g id="patch_124">
    <path d="M 696.18826 362.536 
L 704.362193 362.536 
L 704.362193 150.519393 
L 696.18826 150.519393 
z
" clip-path="url(#p6a5c12d9af)" style="fill: #4f8f46; opacity: 0.35"/>
   </g>
   <g id="patch_125">
    <path d="M 704.362193 362.536 
L 712.536126 362.536 
L 712.536126 132.932762 
L 704.362193 132.932762 
z
" clip-path="url(#p6a5c12d9af)" style="fill: #4f8f46; opacity: 0.35"/>
   </g>
   <g id="patch_126">
    <path d="M 712.536126 362.536 
L 720.710059 362.536 
L 720.710059 138.306455 
L 712.536126 138.306455 
z
" clip-path="url(#p6a5c12d9af)" style="fill: #4f8f46; opacity: 0.35"/>
   </g>
   <g id="patch_127">
    <path d="M 720.710059 362.536 
L 728.883992 362.536 
L 728.883992 162.243814 
L 720.710059 162.243814 
z
" clip-path="url(#p6a5c12d9af)" style="fill: #4f8f46; opacity: 0.35"/>
   </g>
   <g id="patch_128">
    <path d="M 728.883992 362.536 
L 737.057926 362.536 
L 737.057926 166.151954 
L 728.883992 166.151954 
z
" clip-path="url(#p6a5c12d9af)" style="fill: #4f8f46; opacity: 0.35"/>
   </g>
   <g id="patch_129">
    <path d="M 737.057926 362.536 
L 745.231859 362.536 
L 745.231859 193.508935 
L 737.057926 193.508935 
z
" clip-path="url(#p6a5c12d9af)" style="fill: #4f8f46; opacity: 0.35"/>
   </g>
   <g id="patch_130">
    <path d="M 745.231859 362.536 
L 753.405792 362.536 
L 753.405792 200.836698 
L 745.231859 200.836698 
z
" clip-path="url(#p6a5c12d9af)" style="fill: #4f8f46; opacity: 0.35"/>
   </g>
   <g id="patch_131">
    <path d="M 753.405792 362.536 
L 761.579725 362.536 
L 761.579725 210.607049 
L 753.405792 210.607049 
z
" clip-path="url(#p6a5c12d9af)" style="fill: #4f8f46; opacity: 0.35"/>
   </g>
   <g id="patch_132">
    <path d="M 761.579725 362.536 
L 769.753658 362.536 
L 769.753658 251.154004 
L 761.579725 251.154004 
z
" clip-path="url(#p6a5c12d9af)" style="fill: #4f8f46; opacity: 0.35"/>
   </g>
   <g id="patch_133">
    <path d="M 769.753658 362.536 
L 777.927592 362.536 
L 777.927592 256.039179 
L 769.753658 256.039179 
z
" clip-path="url(#p6a5c12d9af)" style="fill: #4f8f46; opacity: 0.35"/>
   </g>
   <g id="patch_134">
    <path d="M 777.927592 362.536 
L 786.101525 362.536 
L 786.101525 278.999503 
L 777.927592 278.999503 
z
" clip-path="url(#p6a5c12d9af)" style="fill: #4f8f46; opacity: 0.35"/>
   </g>
   <g id="patch_135">
    <path d="M 786.101525 362.536 
L 794.275458 362.536 
L 794.275458 297.563169 
L 786.101525 297.563169 
z
" clip-path="url(#p6a5c12d9af)" style="fill: #4f8f46; opacity: 0.35"/>
   </g>
   <g id="patch_136">
    <path d="M 794.275458 362.536 
L 802.449391 362.536 
L 802.449391 292.189476 
L 794.275458 292.189476 
z
" clip-path="url(#p6a5c12d9af)" style="fill: #4f8f46; opacity: 0.35"/>
   </g>
   <g id="patch_137">
    <path d="M 802.449391 362.536 
L 810.623324 362.536 
L 810.623324 293.655029 
L 802.449391 293.655029 
z
" clip-path="url(#p6a5c12d9af)" style="fill: #4f8f46; opacity: 0.35"/>
   </g>
   <g id="patch_138">
    <path d="M 810.623324 362.536 
L 818.797258 362.536 
L 818.797258 311.730177 
L 810.623324 311.730177 
z
" clip-path="url(#p6a5c12d9af)" style="fill: #4f8f46; opacity: 0.35"/>
   </g>
   <g id="patch_139">
    <path d="M 818.797258 362.536 
L 826.971191 362.536 
L 826.971191 317.592387 
L 818.797258 317.592387 
z
" clip-path="url(#p6a5c12d9af)" style="fill: #4f8f46; opacity: 0.35"/>
   </g>
   <g id="patch_140">
    <path d="M 826.971191 362.536 
L 835.145124 362.536 
L 835.145124 325.408668 
L 826.971191 325.408668 
z
" clip-path="url(#p6a5c12d9af)" style="fill: #4f8f46; opacity: 0.35"/>
   </g>
   <g id="patch_141">
    <path d="M 835.145124 362.536 
L 843.319057 362.536 
L 843.319057 327.362738 
L 835.145124 327.362738 
z
" clip-path="url(#p6a5c12d9af)" style="fill: #4f8f46; opacity: 0.35"/>
   </g>
   <g id="patch_142">
    <path d="M 843.319057 362.536 
L 851.49299 362.536 
L 851.49299 336.644571 
L 843.319057 336.644571 
z
" clip-path="url(#p6a5c12d9af)" style="fill: #4f8f46; opacity: 0.35"/>
   </g>
   <g id="patch_143">
    <path d="M 851.49299 362.536 
L 859.666924 362.536 
L 859.666924 340.064194 
L 851.49299 340.064194 
z
" clip-path="url(#p6a5c12d9af)" style="fill: #4f8f46; opacity: 0.35"/>
   </g>
   <g id="patch_144">
    <path d="M 859.666924 362.536 
L 867.840857 362.536 
L 867.840857 340.552711 
L 859.666924 340.552711 
z
" clip-path="url(#p6a5c12d9af)" style="fill: #4f8f46; opacity: 0.35"/>
   </g>
   <g id="patch_145">
    <path d="M 867.840857 362.536 
L 876.01479 362.536 
L 876.01479 345.437887 
L 867.840857 345.437887 
z
" clip-path="url(#p6a5c12d9af)" style="fill: #4f8f46; opacity: 0.35"/>
   </g>
   <g id="patch_146">
    <path d="M 876.01479 362.536 
L 884.188723 362.536 
L 884.188723 347.391957 
L 876.01479 347.391957 
z
" clip-path="url(#p6a5c12d9af)" style="fill: #4f8f46; opacity: 0.35"/>
   </g>
   <g id="patch_147">
    <path d="M 884.188723 362.536 
L 892.362657 362.536 
L 892.362657 349.834544 
L 884.188723 349.834544 
z
" clip-path="url(#p6a5c12d9af)" style="fill: #4f8f46; opacity: 0.35"/>
   </g>
   <g id="patch_148">
    <path d="M 892.362657 362.536 
L 900.53659 362.536 
L 900.53659 346.414922 
L 892.362657 346.414922 
z
" clip-path="url(#p6a5c12d9af)" style="fill: #4f8f46; opacity: 0.35"/>
   </g>
   <g id="patch_149">
    <path d="M 900.53659 362.536 
L 908.710523 362.536 
L 908.710523 345.926404 
L 900.53659 345.926404 
z
" clip-path="url(#p6a5c12d9af)" style="fill: #4f8f46; opacity: 0.35"/>
   </g>
   <g id="patch_150">
    <path d="M 908.710523 362.536 
L 916.884456 362.536 
L 916.884456 356.67379 
L 908.710523 356.67379 
z
" clip-path="url(#p6a5c12d9af)" style="fill: #4f8f46; opacity: 0.35"/>
   </g>
   <g id="patch_151">
    <path d="M 916.884456 362.536 
L 925.058389 362.536 
L 925.058389 350.811579 
L 916.884456 350.811579 
z
" clip-path="url(#p6a5c12d9af)" style="fill: #4f8f46; opacity: 0.35"/>
   </g>
   <g id="patch_152">
    <path d="M 925.058389 362.536 
L 933.232323 362.536 
L 933.232323 355.696755 
L 925.058389 355.696755 
z
" clip-path="url(#p6a5c12d9af)" style="fill: #4f8f46; opacity: 0.35"/>
   </g>
   <g id="patch_153">
    <path d="M 933.232323 362.536 
L 941.406256 362.536 
L 941.406256 354.231202 
L 933.232323 354.231202 
z
" clip-path="url(#p6a5c12d9af)" style="fill: #4f8f46; opacity: 0.35"/>
   </g>
   <g id="patch_154">
    <path d="M 941.406256 362.536 
L 949.580189 362.536 
L 949.580189 352.277132 
L 941.406256 352.277132 
z
" clip-path="url(#p6a5c12d9af)" style="fill: #4f8f46; opacity: 0.35"/>
   </g>
   <g id="patch_155">
    <path d="M 949.580189 362.536 
L 957.754122 362.536 
L 957.754122 356.67379 
L 949.580189 356.67379 
z
" clip-path="url(#p6a5c12d9af)" style="fill: #4f8f46; opacity: 0.35"/>
   </g>
   <g id="patch_156">
    <path d="M 957.754122 362.536 
L 965.928055 362.536 
L 965.928055 359.604895 
L 957.754122 359.604895 
z
" clip-path="url(#p6a5c12d9af)" style="fill: #4f8f46; opacity: 0.35"/>
   </g>
   <g id="patch_157">
    <path d="M 965.928055 362.536 
L 974.101989 362.536 
L 974.101989 324.431633 
L 965.928055 324.431633 
z
" clip-path="url(#p6a5c12d9af)" style="fill: #4f8f46; opacity: 0.35"/>
   </g>
   <g id="matplotlib.axis_3">
    <g id="xtick_4">
     <g id="line2d_35">
      <g>
       <use xlink:href="#m7ea9ab49bd" x="573.579261" y="362.536" style="stroke: #000000; stroke-width: 0.8"/>
      </g>
     </g>
     <g id="text_14">
      <!-- 0 -->
      <g transform="translate(570.398011 377.134437) scale(0.1 -0.1)">
       <use xlink:href="#DejaVuSans-30"/>
      </g>
     </g>
    </g>
    <g id="xtick_5">
     <g id="line2d_36">
      <g>
       <use xlink:href="#m7ea9ab49bd" x="658.978564" y="362.536" style="stroke: #000000; stroke-width: 0.8"/>
      </g>
     </g>
     <g id="text_15">
      <!-- 200 -->
      <g transform="translate(649.434814 377.134437) scale(0.1 -0.1)">
       <use xlink:href="#DejaVuSans-32"/>
       <use xlink:href="#DejaVuSans-30" transform="translate(63.623047 0)"/>
       <use xlink:href="#DejaVuSans-30" transform="translate(127.246094 0)"/>
      </g>
     </g>
    </g>
    <g id="xtick_6">
     <g id="line2d_37">
      <g>
       <use xlink:href="#m7ea9ab49bd" x="744.377866" y="362.536" style="stroke: #000000; stroke-width: 0.8"/>
      </g>
     </g>
     <g id="text_16">
      <!-- 400 -->
      <g transform="translate(734.834116 377.134437) scale(0.1 -0.1)">
       <use xlink:href="#DejaVuSans-34"/>
       <use xlink:href="#DejaVuSans-30" transform="translate(63.623047 0)"/>
       <use xlink:href="#DejaVuSans-30" transform="translate(127.246094 0)"/>
      </g>
     </g>
    </g>
    <g id="xtick_7">
     <g id="line2d_38">
      <g>
       <use xlink:href="#m7ea9ab49bd" x="829.777168" y="362.536" style="stroke: #000000; stroke-width: 0.8"/>
      </g>
     </g>
     <g id="text_17">
      <!-- 600 -->
      <g transform="translate(820.233418 377.134437) scale(0.1 -0.1)">
       <use xlink:href="#DejaVuSans-36"/>
       <use xlink:href="#DejaVuSans-30" transform="translate(63.623047 0)"/>
       <use xlink:href="#DejaVuSans-30" transform="translate(127.246094 0)"/>
      </g>
     </g>
    </g>
    <g id="xtick_8">
     <g id="line2d_39">
      <g>
       <use xlink:href="#m7ea9ab49bd" x="915.17647" y="362.536" style="stroke: #000000; stroke-width: 0.8"/>
      </g>
     </g>
     <g id="text_18">
      <!-- 800 -->
      <g transform="translate(905.63272 377.134437) scale(0.1 -0.1)">
       <defs>
        <path id="DejaVuSans-38" d="M 2034 2216 
Q 1584 2216 1326 1975 
Q 1069 1734 1069 1313 
Q 1069 891 1326 650 
Q 1584 409 2034 409 
Q 2484 409 2743 651 
Q 3003 894 3003 1313 
Q 3003 1734 2745 1975 
Q 2488 2216 2034 2216 
z
M 1403 2484 
Q 997 2584 770 2862 
Q 544 3141 544 3541 
Q 544 4100 942 4425 
Q 1341 4750 2034 4750 
Q 2731 4750 3128 4425 
Q 3525 4100 3525 3541 
Q 3525 3141 3298 2862 
Q 3072 2584 2669 2484 
Q 3125 2378 3379 2068 
Q 3634 1759 3634 1313 
Q 3634 634 3220 271 
Q 2806 -91 2034 -91 
Q 1263 -91 848 271 
Q 434 634 434 1313 
Q 434 1759 690 2068 
Q 947 2378 1403 2484 
z
M 1172 3481 
Q 1172 3119 1398 2916 
Q 1625 2713 2034 2713 
Q 2441 2713 2670 2916 
Q 2900 3119 2900 3481 
Q 2900 3844 2670 4047 
Q 2441 4250 2034 4250 
Q 1625 4250 1398 4047 
Q 1172 3844 1172 3481 
z
" transform="scale(0.015625)"/>
       </defs>
       <use xlink:href="#DejaVuSans-38"/>
       <use xlink:href="#DejaVuSans-30" transform="translate(63.623047 0)"/>
       <use xlink:href="#DejaVuSans-30" transform="translate(127.246094 0)"/>
      </g>
     </g>
    </g>
    <g id="text_19">
     <!-- Tokens per sample (clipped at p99) -->
     <g transform="translate(685.99375 390.812562) scale(0.1 -0.1)">
      <defs>
       <path id="DejaVuSans-28" d="M 1984 4856 
Q 1566 4138 1362 3434 
Q 1159 2731 1159 2009 
Q 1159 1288 1364 580 
Q 1569 -128 1984 -844 
L 1484 -844 
Q 1016 -109 783 600 
Q 550 1309 550 2009 
Q 550 2706 781 3412 
Q 1013 4119 1484 4856 
L 1984 4856 
z
" transform="scale(0.015625)"/>
       <path id="DejaVuSans-63" d="M 3122 3366 
L 3122 2828 
Q 2878 2963 2633 3030 
Q 2388 3097 2138 3097 
Q 1578 3097 1268 2742 
Q 959 2388 959 1747 
Q 959 1106 1268 751 
Q 1578 397 2138 397 
Q 2388 397 2633 464 
Q 2878 531 3122 666 
L 3122 134 
Q 2881 22 2623 -34 
Q 2366 -91 2075 -91 
Q 1284 -91 818 406 
Q 353 903 353 1747 
Q 353 2603 823 3093 
Q 1294 3584 2113 3584 
Q 2378 3584 2631 3529 
Q 2884 3475 3122 3366 
z
" transform="scale(0.015625)"/>
       <path id="DejaVuSans-39" d="M 703 97 
L 703 672 
Q 941 559 1184 500 
Q 1428 441 1663 441 
Q 2288 441 2617 861 
Q 2947 1281 2994 2138 
Q 2813 1869 2534 1725 
Q 2256 1581 1919 1581 
Q 1219 1581 811 2004 
Q 403 2428 403 3163 
Q 403 3881 828 4315 
Q 1253 4750 1959 4750 
Q 2769 4750 3195 4129 
Q 3622 3509 3622 2328 
Q 3622 1225 3098 567 
Q 2575 -91 1691 -91 
Q 1453 -91 1209 -44 
Q 966 3 703 97 
z
M 1959 2075 
Q 2384 2075 2632 2365 
Q 2881 2656 2881 3163 
Q 2881 3666 2632 3958 
Q 2384 4250 1959 4250 
Q 1534 4250 1286 3958 
Q 1038 3666 1038 3163 
Q 1038 2656 1286 2365 
Q 1534 2075 1959 2075 
z
" transform="scale(0.015625)"/>
       <path id="DejaVuSans-29" d="M 513 4856 
L 1013 4856 
Q 1481 4119 1714 3412 
Q 1947 2706 1947 2009 
Q 1947 1309 1714 600 
Q 1481 -109 1013 -844 
L 513 -844 
Q 928 -128 1133 580 
Q 1338 1288 1338 2009 
Q 1338 2731 1133 3434 
Q 928 4138 513 4856 
z
" transform="scale(0.015625)"/>
      </defs>
      <use xlink:href="#DejaVuSans-54"/>
      <use xlink:href="#DejaVuSans-6f" transform="translate(44.083984 0)"/>
      <use xlink:href="#DejaVuSans-6b" transform="translate(105.265625 0)"/>
      <use xlink:href="#DejaVuSans-65" transform="translate(159.550781 0)"/>
      <use xlink:href="#DejaVuSans-6e" transform="translate(221.074219 0)"/>
      <use xlink:href="#DejaVuSans-73" transform="translate(284.453125 0)"/>
      <use xlink:href="#DejaVuSans-20" transform="translate(336.552734 0)"/>
      <use xlink:href="#DejaVuSans-70" transform="translate(368.339844 0)"/>
      <use xlink:href="#DejaVuSans-65" transform="translate(431.816406 0)"/>
      <use xlink:href="#DejaVuSans-72" transform="translate(493.339844 0)"/>
      <use xlink:href="#DejaVuSans-20" transform="translate(534.453125 0)"/>
      <use xlink:href="#DejaVuSans-73" transform="translate(566.240234 0)"/>
      <use xlink:href="#DejaVuSans-61" transform="translate(618.339844 0)"/>
      <use xlink:href="#DejaVuSans-6d" transform="translate(679.619141 0)"/>
      <use xlink:href="#DejaVuSans-70" transform="translate(777.03125 0)"/>
      <use xlink:href="#DejaVuSans-6c" transform="translate(840.507812 0)"/>
      <use xlink:href="#DejaVuSans-65" transform="translate(868.291016 0)"/>
      <use xlink:href="#DejaVuSans-20" transform="translate(929.814453 0)"/>
      <use xlink:href="#DejaVuSans-28" transform="translate(961.601562 0)"/>
      <use xlink:href="#DejaVuSans-63" transform="translate(1000.615234 0)"/>
      <use xlink:href="#DejaVuSans-6c" transform="translate(1055.595703 0)"/>
      <use xlink:href="#DejaVuSans-69" transform="translate(1083.378906 0)"/>
      <use xlink:href="#DejaVuSans-70" transform="translate(1111.162109 0)"/>
      <use xlink:href="#DejaVuSans-70" transform="translate(1174.638672 0)"/>
      <use xlink:href="#DejaVuSans-65" transform="translate(1238.115234 0)"/>
      <use xlink:href="#DejaVuSans-64" transform="translate(1299.638672 0)"/>
      <use xlink:href="#DejaVuSans-20" transform="translate(1363.115234 0)"/>
      <use xlink:href="#DejaVuSans-61" transform="translate(1394.902344 0)"/>
      <use xlink:href="#DejaVuSans-74" transform="translate(1456.181641 0)"/>
      <use xlink:href="#DejaVuSans-20" transform="translate(1495.390625 0)"/>
      <use xlink:href="#DejaVuSans-70" transform="translate(1527.177734 0)"/>
      <use xlink:href="#DejaVuSans-39" transform="translate(1590.654297 0)"/>
      <use xlink:href="#DejaVuSans-39" transform="translate(1654.277344 0)"/>
      <use xlink:href="#DejaVuSans-29" transform="translate(1717.900391 0)"/>
     </g>
    </g>
   </g>
   <g id="matplotlib.axis_4">
    <g id="ytick_9">
     <g id="line2d_40">
      <path d="M 553.553125 362.536 
L 994.128125 362.536 
" clip-path="url(#p6a5c12d9af)" style="fill: none; stroke: #b0b0b0; stroke-opacity: 0.25; stroke-width: 0.8; stroke-linecap: square"/>
     </g>
     <g id="line2d_41">
      <g>
       <use xlink:href="#m0283a4af4d" x="553.553125" y="362.536" style="stroke: #000000; stroke-width: 0.8"/>
      </g>
     </g>
     <g id="text_20">
      <!-- 0.0000 -->
      <g transform="translate(511.5625 366.335219) scale(0.1 -0.1)">
       <defs>
        <path id="DejaVuSans-2e" d="M 684 794 
L 1344 794 
L 1344 0 
L 684 0 
L 684 794 
z
" transform="scale(0.015625)"/>
       </defs>
       <use xlink:href="#DejaVuSans-30"/>
       <use xlink:href="#DejaVuSans-2e" transform="translate(63.623047 0)"/>
       <use xlink:href="#DejaVuSans-30" transform="translate(95.410156 0)"/>
       <use xlink:href="#DejaVuSans-30" transform="translate(159.033203 0)"/>
       <use xlink:href="#DejaVuSans-30" transform="translate(222.65625 0)"/>
       <use xlink:href="#DejaVuSans-30" transform="translate(286.279297 0)"/>
      </g>
     </g>
    </g>
    <g id="ytick_10">
     <g id="line2d_42">
      <path d="M 553.553125 326.714615 
L 994.128125 326.714615 
" clip-path="url(#p6a5c12d9af)" style="fill: none; stroke: #b0b0b0; stroke-opacity: 0.25; stroke-width: 0.8; stroke-linecap: square"/>
     </g>
     <g id="line2d_43">
      <g>
       <use xlink:href="#m0283a4af4d" x="553.553125" y="326.714615" style="stroke: #000000; stroke-width: 0.8"/>
      </g>
     </g>
     <g id="text_21">
      <!-- 0.0005 -->
      <g transform="translate(511.5625 330.513834) scale(0.1 -0.1)">
       <use xlink:href="#DejaVuSans-30"/>
       <use xlink:href="#DejaVuSans-2e" transform="translate(63.623047 0)"/>
       <use xlink:href="#DejaVuSans-30" transform="translate(95.410156 0)"/>
       <use xlink:href="#DejaVuSans-30" transform="translate(159.033203 0)"/>
       <use xlink:href="#DejaVuSans-30" transform="translate(222.65625 0)"/>
       <use xlink:href="#DejaVuSans-35" transform="translate(286.279297 0)"/>
      </g>
     </g>
    </g>
    <g id="ytick_11">
     <g id="line2d_44">
      <path d="M 553.553125 290.89323 
L 994.128125 290.89323 
" clip-path="url(#p6a5c12d9af)" style="fill: none; stroke: #b0b0b0; stroke-opacity: 0.25; stroke-width: 0.8; stroke-linecap: square"/>
     </g>
     <g id="line2d_45">
      <g>
       <use xlink:href="#m0283a4af4d" x="553.553125" y="290.89323" style="stroke: #000000; stroke-width: 0.8"/>
      </g>
     </g>
     <g id="text_22">
      <!-- 0.0010 -->
      <g transform="translate(511.5625 294.692448) scale(0.1 -0.1)">
       <use xlink:href="#DejaVuSans-30"/>
       <use xlink:href="#DejaVuSans-2e" transform="translate(63.623047 0)"/>
       <use xlink:href="#DejaVuSans-30" transform="translate(95.410156 0)"/>
       <use xlink:href="#DejaVuSans-30" transform="translate(159.033203 0)"/>
       <use xlink:href="#DejaVuSans-31" transform="translate(222.65625 0)"/>
       <use xlink:href="#DejaVuSans-30" transform="translate(286.279297 0)"/>
      </g>
     </g>
    </g>
    <g id="ytick_12">
     <g id="line2d_46">
      <path d="M 553.553125 255.071844 
L 994.128125 255.071844 
" clip-path="url(#p6a5c12d9af)" style="fill: none; stroke: #b0b0b0; stroke-opacity: 0.25; stroke-width: 0.8; stroke-linecap: square"/>
     </g>
     <g id="line2d_47">
      <g>
       <use xlink:href="#m0283a4af4d" x="553.553125" y="255.071844" style="stroke: #000000; stroke-width: 0.8"/>
      </g>
     </g>
     <g id="text_23">
      <!-- 0.0015 -->
      <g transform="translate(511.5625 258.871063) scale(0.1 -0.1)">
       <use xlink:href="#DejaVuSans-30"/>
       <use xlink:href="#DejaVuSans-2e" transform="translate(63.623047 0)"/>
       <use xlink:href="#DejaVuSans-30" transform="translate(95.410156 0)"/>
       <use xlink:href="#DejaVuSans-30" transform="translate(159.033203 0)"/>
       <use xlink:href="#DejaVuSans-31" transform="translate(222.65625 0)"/>
       <use xlink:href="#DejaVuSans-35" transform="translate(286.279297 0)"/>
      </g>
     </g>
    </g>
    <g id="ytick_13">
     <g id="line2d_48">
      <path d="M 553.553125 219.250459 
L 994.128125 219.250459 
" clip-path="url(#p6a5c12d9af)" style="fill: none; stroke: #b0b0b0; stroke-opacity: 0.25; stroke-width: 0.8; stroke-linecap: square"/>
     </g>
     <g id="line2d_49">
      <g>
       <use xlink:href="#m0283a4af4d" x="553.553125" y="219.250459" style="stroke: #000000; stroke-width: 0.8"/>
      </g>
     </g>
     <g id="text_24">
      <!-- 0.0020 -->
      <g transform="translate(511.5625 223.049678) scale(0.1 -0.1)">
       <use xlink:href="#DejaVuSans-30"/>
       <use xlink:href="#DejaVuSans-2e" transform="translate(63.623047 0)"/>
       <use xlink:href="#DejaVuSans-30" transform="translate(95.410156 0)"/>
       <use xlink:href="#DejaVuSans-30" transform="translate(159.033203 0)"/>
       <use xlink:href="#DejaVuSans-32" transform="translate(222.65625 0)"/>
       <use xlink:href="#DejaVuSans-30" transform="translate(286.279297 0)"/>
      </g>
     </g>
    </g>
    <g id="ytick_14">
     <g id="line2d_50">
      <path d="M 553.553125 183.429074 
L 994.128125 183.429074 
" clip-path="url(#p6a5c12d9af)" style="fill: none; stroke: #b0b0b0; stroke-opacity: 0.25; stroke-width: 0.8; stroke-linecap: square"/>
     </g>
     <g id="line2d_51">
      <g>
       <use xlink:href="#m0283a4af4d" x="553.553125" y="183.429074" style="stroke: #000000; stroke-width: 0.8"/>
      </g>
     </g>
     <g id="text_25">
      <!-- 0.0025 -->
      <g transform="translate(511.5625 187.228293) scale(0.1 -0.1)">
       <use xlink:href="#DejaVuSans-30"/>
       <use xlink:href="#DejaVuSans-2e" transform="translate(63.623047 0)"/>
       <use xlink:href="#DejaVuSans-30" transform="translate(95.410156 0)"/>
       <use xlink:href="#DejaVuSans-30" transform="translate(159.033203 0)"/>
       <use xlink:href="#DejaVuSans-32" transform="translate(222.65625 0)"/>
       <use xlink:href="#DejaVuSans-35" transform="translate(286.279297 0)"/>
      </g>
     </g>
    </g>
    <g id="ytick_15">
     <g id="line2d_52">
      <path d="M 553.553125 147.607689 
L 994.128125 147.607689 
" clip-path="url(#p6a5c12d9af)" style="fill: none; stroke: #b0b0b0; stroke-opacity: 0.25; stroke-width: 0.8; stroke-linecap: square"/>
     </g>
     <g id="line2d_53">
      <g>
       <use xlink:href="#m0283a4af4d" x="553.553125" y="147.607689" style="stroke: #000000; stroke-width: 0.8"/>
      </g>
     </g>
     <g id="text_26">
      <!-- 0.0030 -->
      <g transform="translate(511.5625 151.406908) scale(0.1 -0.1)">
       <use xlink:href="#DejaVuSans-30"/>
       <use xlink:href="#DejaVuSans-2e" transform="translate(63.623047 0)"/>
       <use xlink:href="#DejaVuSans-30" transform="translate(95.410156 0)"/>
       <use xlink:href="#DejaVuSans-30" transform="translate(159.033203 0)"/>
       <use xlink:href="#DejaVuSans-33" transform="translate(222.65625 0)"/>
       <use xlink:href="#DejaVuSans-30" transform="translate(286.279297 0)"/>
      </g>
     </g>
    </g>
    <g id="ytick_16">
     <g id="line2d_54">
      <path d="M 553.553125 111.786304 
L 994.128125 111.786304 
" clip-path="url(#p6a5c12d9af)" style="fill: none; stroke: #b0b0b0; stroke-opacity: 0.25; stroke-width: 0.8; stroke-linecap: square"/>
     </g>
     <g id="line2d_55">
      <g>
       <use xlink:href="#m0283a4af4d" x="553.553125" y="111.786304" style="stroke: #000000; stroke-width: 0.8"/>
      </g>
     </g>
     <g id="text_27">
      <!-- 0.0035 -->
      <g transform="translate(511.5625 115.585522) scale(0.1 -0.1)">
       <use xlink:href="#DejaVuSans-30"/>
       <use xlink:href="#DejaVuSans-2e" transform="translate(63.623047 0)"/>
       <use xlink:href="#DejaVuSans-30" transform="translate(95.410156 0)"/>
       <use xlink:href="#DejaVuSans-30" transform="translate(159.033203 0)"/>
       <use xlink:href="#DejaVuSans-33" transform="translate(222.65625 0)"/>
       <use xlink:href="#DejaVuSans-35" transform="translate(286.279297 0)"/>
      </g>
     </g>
    </g>
    <g id="ytick_17">
     <g id="line2d_56">
      <path d="M 553.553125 75.964918 
L 994.128125 75.964918 
" clip-path="url(#p6a5c12d9af)" style="fill: none; stroke: #b0b0b0; stroke-opacity: 0.25; stroke-width: 0.8; stroke-linecap: square"/>
     </g>
     <g id="line2d_57">
      <g>
       <use xlink:href="#m0283a4af4d" x="553.553125" y="75.964918" style="stroke: #000000; stroke-width: 0.8"/>
      </g>
     </g>
     <g id="text_28">
      <!-- 0.0040 -->
      <g transform="translate(511.5625 79.764137) scale(0.1 -0.1)">
       <use xlink:href="#DejaVuSans-30"/>
       <use xlink:href="#DejaVuSans-2e" transform="translate(63.623047 0)"/>
       <use xlink:href="#DejaVuSans-30" transform="translate(95.410156 0)"/>
       <use xlink:href="#DejaVuSans-30" transform="translate(159.033203 0)"/>
       <use xlink:href="#DejaVuSans-34" transform="translate(222.65625 0)"/>
       <use xlink:href="#DejaVuSans-30" transform="translate(286.279297 0)"/>
      </g>
     </g>
    </g>
    <g id="text_29">
     <!-- Density -->
     <g transform="translate(505.482812 237.890594) rotate(-90) scale(0.1 -0.1)">
      <defs>
       <path id="DejaVuSans-44" d="M 1259 4147 
L 1259 519 
L 2022 519 
Q 2988 519 3436 956 
Q 3884 1394 3884 2338 
Q 3884 3275 3436 3711 
Q 2988 4147 2022 4147 
L 1259 4147 
z
M 628 4666 
L 1925 4666 
Q 3281 4666 3915 4102 
Q 4550 3538 4550 2338 
Q 4550 1131 3912 565 
Q 3275 0 1925 0 
L 628 0 
L 628 4666 
z
" transform="scale(0.015625)"/>
       <path id="DejaVuSans-79" d="M 2059 -325 
Q 1816 -950 1584 -1140 
Q 1353 -1331 966 -1331 
L 506 -1331 
L 506 -850 
L 844 -850 
Q 1081 -850 1212 -737 
Q 1344 -625 1503 -206 
L 1606 56 
L 191 3500 
L 800 3500 
L 1894 763 
L 2988 3500 
L 3597 3500 
L 2059 -325 
z
" transform="scale(0.015625)"/>
      </defs>
      <use xlink:href="#DejaVuSans-44"/>
      <use xlink:href="#DejaVuSans-65" transform="translate(77.001953 0)"/>
      <use xlink:href="#DejaVuSans-6e" transform="translate(138.525391 0)"/>
      <use xlink:href="#DejaVuSans-73" transform="translate(201.904297 0)"/>
      <use xlink:href="#DejaVuSans-69" transform="translate(254.003906 0)"/>
      <use xlink:href="#DejaVuSans-74" transform="translate(281.787109 0)"/>
      <use xlink:href="#DejaVuSans-79" transform="translate(320.996094 0)"/>
     </g>
    </g>
   </g>
   <g id="patch_158">
    <path d="M 553.553125 362.536 
L 553.553125 75.228 
" style="fill: none; stroke: #000000; stroke-width: 0.8; stroke-linejoin: miter; stroke-linecap: square"/>
   </g>
   <g id="patch_159">
    <path d="M 994.128125 362.536 
L 994.128125 75.228 
" style="fill: none; stroke: #000000; stroke-width: 0.8; stroke-linejoin: miter; stroke-linecap: square"/>
   </g>
   <g id="patch_160">
    <path d="M 553.553125 362.536 
L 994.128125 362.536 
" style="fill: none; stroke: #000000; stroke-width: 0.8; stroke-linejoin: miter; stroke-linecap: square"/>
   </g>
   <g id="patch_161">
    <path d="M 553.553125 75.228 
L 994.128125 75.228 
" style="fill: none; stroke: #000000; stroke-width: 0.8; stroke-linejoin: miter; stroke-linecap: square"/>
   </g>
   <g id="text_30">
    <!-- Length Distribution -->
    <g transform="translate(707.777812 69.228) scale(0.12 -0.12)">
     <defs>
      <path id="DejaVuSans-Bold-44" d="M 1791 3756 
L 1791 909 
L 2222 909 
Q 2959 909 3348 1275 
Q 3738 1641 3738 2338 
Q 3738 3031 3350 3393 
Q 2963 3756 2222 3756 
L 1791 3756 
z
M 588 4666 
L 1856 4666 
Q 2919 4666 3439 4514 
Q 3959 4363 4331 4000 
Q 4659 3684 4818 3271 
Q 4978 2859 4978 2338 
Q 4978 1809 4818 1395 
Q 4659 981 4331 666 
Q 3956 303 3431 151 
Q 2906 0 1856 0 
L 588 0 
L 588 4666 
z
" transform="scale(0.015625)"/>
      <path id="DejaVuSans-Bold-69" d="M 538 3500 
L 1656 3500 
L 1656 0 
L 538 0 
L 538 3500 
z
M 538 4863 
L 1656 4863 
L 1656 3950 
L 538 3950 
L 538 4863 
z
" transform="scale(0.015625)"/>
      <path id="DejaVuSans-Bold-62" d="M 2400 722 
Q 2759 722 2948 984 
Q 3138 1247 3138 1747 
Q 3138 2247 2948 2509 
Q 2759 2772 2400 2772 
Q 2041 2772 1848 2508 
Q 1656 2244 1656 1747 
Q 1656 1250 1848 986 
Q 2041 722 2400 722 
z
M 1656 2988 
Q 1888 3294 2169 3439 
Q 2450 3584 2816 3584 
Q 3463 3584 3878 3070 
Q 4294 2556 4294 1747 
Q 4294 938 3878 423 
Q 3463 -91 2816 -91 
Q 2450 -91 2169 54 
Q 1888 200 1656 506 
L 1656 0 
L 538 0 
L 538 4863 
L 1656 4863 
L 1656 2988 
z
" transform="scale(0.015625)"/>
      <path id="DejaVuSans-Bold-6f" d="M 2203 2784 
Q 1831 2784 1636 2517 
Q 1441 2250 1441 1747 
Q 1441 1244 1636 976 
Q 1831 709 2203 709 
Q 2569 709 2762 976 
Q 2956 1244 2956 1747 
Q 2956 2250 2762 2517 
Q 2569 2784 2203 2784 
z
M 2203 3584 
Q 3106 3584 3614 3096 
Q 4122 2609 4122 1747 
Q 4122 884 3614 396 
Q 3106 -91 2203 -91 
Q 1297 -91 786 396 
Q 275 884 275 1747 
Q 275 2609 786 3096 
Q 1297 3584 2203 3584 
z
" transform="scale(0.015625)"/>
     </defs>
     <use xlink:href="#DejaVuSans-Bold-4c"/>
     <use xlink:href="#DejaVuSans-Bold-65" transform="translate(63.720703 0)"/>
     <use xlink:href="#DejaVuSans-Bold-6e" transform="translate(131.542969 0)"/>
     <use xlink:href="#DejaVuSans-Bold-67" transform="translate(202.734375 0)"/>
     <use xlink:href="#DejaVuSans-Bold-74" transform="translate(274.316406 0)"/>
     <use xlink:href="#DejaVuSans-Bold-68" transform="translate(322.119141 0)"/>
     <use xlink:href="#DejaVuSans-Bold-20" transform="translate(393.310547 0)"/>
     <use xlink:href="#DejaVuSans-Bold-44" transform="translate(428.125 0)"/>
     <use xlink:href="#DejaVuSans-Bold-69" transform="translate(511.132812 0)"/>
     <use xlink:href="#DejaVuSans-Bold-73" transform="translate(545.410156 0)"/>
     <use xlink:href="#DejaVuSans-Bold-74" transform="translate(604.931641 0)"/>
     <use xlink:href="#DejaVuSans-Bold-72" transform="translate(652.734375 0)"/>
     <use xlink:href="#DejaVuSans-Bold-69" transform="translate(702.050781 0)"/>
     <use xlink:href="#DejaVuSans-Bold-62" transform="translate(736.328125 0)"/>
     <use xlink:href="#DejaVuSans-Bold-75" transform="translate(807.910156 0)"/>
     <use xlink:href="#DejaVuSans-Bold-74" transform="translate(879.101562 0)"/>
     <use xlink:href="#DejaVuSans-Bold-69" transform="translate(926.904297 0)"/>
     <use xlink:href="#DejaVuSans-Bold-6f" transform="translate(961.181641 0)"/>
     <use xlink:href="#DejaVuSans-Bold-6e" transform="translate(1029.882812 0)"/>
    </g>
   </g>
   <g id="legend_1">
    <g id="patch_162">
     <path d="M 907.746875 91.826437 
L 927.746875 91.826437 
L 927.746875 84.826437 
L 907.746875 84.826437 
z
" style="fill: #2f6f9f; opacity: 0.35"/>
    </g>
    <g id="text_31">
     <!-- Train -->
     <g transform="translate(935.746875 91.826437) scale(0.1 -0.1)">
      <use xlink:href="#DejaVuSans-54"/>
      <use xlink:href="#DejaVuSans-72" transform="translate(46.333984 0)"/>
      <use xlink:href="#DejaVuSans-61" transform="translate(87.447266 0)"/>
      <use xlink:href="#DejaVuSans-69" transform="translate(148.726562 0)"/>
      <use xlink:href="#DejaVuSans-6e" transform="translate(176.509766 0)"/>
     </g>
    </g>
    <g id="patch_163">
     <path d="M 907.746875 106.504562 
L 927.746875 106.504562 
L 927.746875 99.504562 
L 907.746875 99.504562 
z
" style="fill: #d98b2b; opacity: 0.35"/>
    </g>
    <g id="text_32">
     <!-- Validation -->
     <g transform="translate(935.746875 106.504562) scale(0.1 -0.1)">
      <use xlink:href="#DejaVuSans-56"/>
      <use xlink:href="#DejaVuSans-61" transform="translate(60.658203 0)"/>
      <use xlink:href="#DejaVuSans-6c" transform="translate(121.9375 0)"/>
      <use xlink:href="#DejaVuSans-69" transform="translate(149.720703 0)"/>
      <use xlink:href="#DejaVuSans-64" transform="translate(177.503906 0)"/>
      <use xlink:href="#DejaVuSans-61" transform="translate(240.980469 0)"/>
      <use xlink:href="#DejaVuSans-74" transform="translate(302.259766 0)"/>
      <use xlink:href="#DejaVuSans-69" transform="translate(341.46875 0)"/>
      <use xlink:href="#DejaVuSans-6f" transform="translate(369.251953 0)"/>
      <use xlink:href="#DejaVuSans-6e" transform="translate(430.433594 0)"/>
     </g>
    </g>
    <g id="patch_164">
     <path d="M 907.746875 121.182687 
L 927.746875 121.182687 
L 927.746875 114.182687 
L 907.746875 114.182687 
z
" style="fill: #4f8f46; opacity: 0.35"/>
    </g>
    <g id="text_33">
     <!-- Test -->
     <g transform="translate(935.746875 121.182687) scale(0.1 -0.1)">
      <use xlink:href="#DejaVuSans-54"/>
      <use xlink:href="#DejaVuSans-65" transform="translate(44.083984 0)"/>
      <use xlink:href="#DejaVuSans-73" transform="translate(105.607422 0)"/>
      <use xlink:href="#DejaVuSans-74" transform="translate(157.707031 0)"/>
     </g>
    </g>
   </g>
  </g>
  <g id="text_34">
   <!-- GrandStaff BEKRN Target Lengths -->
   <g transform="translate(347.709375 19.3575) scale(0.16 -0.16)">
    <defs>
     <path id="DejaVuSans-Bold-47" d="M 4781 347 
Q 4331 128 3847 18 
Q 3363 -91 2847 -91 
Q 1681 -91 1000 561 
Q 319 1213 319 2328 
Q 319 3456 1012 4103 
Q 1706 4750 2913 4750 
Q 3378 4750 3804 4662 
Q 4231 4575 4609 4403 
L 4609 3438 
Q 4219 3659 3833 3768 
Q 3447 3878 3059 3878 
Q 2341 3878 1952 3476 
Q 1563 3075 1563 2328 
Q 1563 1588 1938 1184 
Q 2313 781 3003 781 
Q 3191 781 3352 804 
Q 3513 828 3641 878 
L 3641 1784 
L 2906 1784 
L 2906 2591 
L 4781 2591 
L 4781 347 
z
" transform="scale(0.015625)"/>
     <path id="DejaVuSans-Bold-64" d="M 2919 2988 
L 2919 4863 
L 4044 4863 
L 4044 0 
L 2919 0 
L 2919 506 
Q 2688 197 2409 53 
Q 2131 -91 1766 -91 
Q 1119 -91 703 423 
Q 288 938 288 1747 
Q 288 2556 703 3070 
Q 1119 3584 1766 3584 
Q 2128 3584 2408 3439 
Q 2688 3294 2919 2988 
z
M 2181 722 
Q 2541 722 2730 984 
Q 2919 1247 2919 1747 
Q 2919 2247 2730 2509 
Q 2541 2772 2181 2772 
Q 1825 2772 1636 2509 
Q 1447 2247 1447 1747 
Q 1447 1247 1636 984 
Q 1825 722 2181 722 
z
" transform="scale(0.015625)"/>
     <path id="DejaVuSans-Bold-66" d="M 2841 4863 
L 2841 4128 
L 2222 4128 
Q 1984 4128 1890 4042 
Q 1797 3956 1797 3744 
L 1797 3500 
L 2753 3500 
L 2753 2700 
L 1797 2700 
L 1797 0 
L 678 0 
L 678 2700 
L 122 2700 
L 122 3500 
L 678 3500 
L 678 3744 
Q 678 4316 997 4589 
Q 1316 4863 1984 4863 
L 2841 4863 
z
" transform="scale(0.015625)"/>
     <path id="DejaVuSans-Bold-42" d="M 2456 2859 
Q 2741 2859 2887 2984 
Q 3034 3109 3034 3353 
Q 3034 3594 2887 3720 
Q 2741 3847 2456 3847 
L 1791 3847 
L 1791 2859 
L 2456 2859 
z
M 2497 819 
Q 2859 819 3042 972 
Q 3225 1125 3225 1434 
Q 3225 1738 3044 1889 
Q 2863 2041 2497 2041 
L 1791 2041 
L 1791 819 
L 2497 819 
z
M 3616 2497 
Q 4003 2384 4215 2081 
Q 4428 1778 4428 1338 
Q 4428 663 3972 331 
Q 3516 0 2584 0 
L 588 0 
L 588 4666 
L 2394 4666 
Q 3366 4666 3802 4372 
Q 4238 4078 4238 3431 
Q 4238 3091 4078 2852 
Q 3919 2613 3616 2497 
z
" transform="scale(0.015625)"/>
     <path id="DejaVuSans-Bold-45" d="M 588 4666 
L 3834 4666 
L 3834 3756 
L 1791 3756 
L 1791 2888 
L 3713 2888 
L 3713 1978 
L 1791 1978 
L 1791 909 
L 3903 909 
L 3903 0 
L 588 0 
L 588 4666 
z
" transform="scale(0.015625)"/>
     <path id="DejaVuSans-Bold-4b" d="M 588 4666 
L 1791 4666 
L 1791 2963 
L 3525 4666 
L 4922 4666 
L 2675 2456 
L 5153 0 
L 3647 0 
L 1791 1838 
L 1791 0 
L 588 0 
L 588 4666 
z
" transform="scale(0.015625)"/>
     <path id="DejaVuSans-Bold-52" d="M 2297 2597 
Q 2675 2597 2839 2737 
Q 3003 2878 3003 3200 
Q 3003 3519 2839 3656 
Q 2675 3794 2297 3794 
L 1791 3794 
L 1791 2597 
L 2297 2597 
z
M 1791 1766 
L 1791 0 
L 588 0 
L 588 4666 
L 2425 4666 
Q 3347 4666 3776 4356 
Q 4206 4047 4206 3378 
Q 4206 2916 3982 2619 
Q 3759 2322 3309 2181 
Q 3556 2125 3751 1926 
Q 3947 1728 4147 1325 
L 4800 0 
L 3519 0 
L 2950 1159 
Q 2778 1509 2601 1637 
Q 2425 1766 2131 1766 
L 1791 1766 
z
" transform="scale(0.015625)"/>
     <path id="DejaVuSans-Bold-4e" d="M 588 4666 
L 1931 4666 
L 3628 1466 
L 3628 4666 
L 4769 4666 
L 4769 0 
L 3425 0 
L 1728 3200 
L 1728 0 
L 588 0 
L 588 4666 
z
" transform="scale(0.015625)"/>
    </defs>
    <use xlink:href="#DejaVuSans-Bold-47"/>
    <use xlink:href="#DejaVuSans-Bold-72" transform="translate(82.080078 0)"/>
    <use xlink:href="#DejaVuSans-Bold-61" transform="translate(131.396484 0)"/>
    <use xlink:href="#DejaVuSans-Bold-6e" transform="translate(198.876953 0)"/>
    <use xlink:href="#DejaVuSans-Bold-64" transform="translate(270.068359 0)"/>
    <use xlink:href="#DejaVuSans-Bold-53" transform="translate(341.650391 0)"/>
    <use xlink:href="#DejaVuSans-Bold-74" transform="translate(413.671875 0)"/>
    <use xlink:href="#DejaVuSans-Bold-61" transform="translate(461.474609 0)"/>
    <use xlink:href="#DejaVuSans-Bold-66" transform="translate(528.955078 0)"/>
    <use xlink:href="#DejaVuSans-Bold-66" transform="translate(572.460938 0)"/>
    <use xlink:href="#DejaVuSans-Bold-20" transform="translate(615.966797 0)"/>
    <use xlink:href="#DejaVuSans-Bold-42" transform="translate(650.78125 0)"/>
    <use xlink:href="#DejaVuSans-Bold-45" transform="translate(727.001953 0)"/>
    <use xlink:href="#DejaVuSans-Bold-4b" transform="translate(795.3125 0)"/>
    <use xlink:href="#DejaVuSans-Bold-52" transform="translate(872.802734 0)"/>
    <use xlink:href="#DejaVuSans-Bold-4e" transform="translate(949.804688 0)"/>
    <use xlink:href="#DejaVuSans-Bold-20" transform="translate(1033.496094 0)"/>
    <use xlink:href="#DejaVuSans-Bold-54" transform="translate(1068.310547 0)"/>
    <use xlink:href="#DejaVuSans-Bold-61" transform="translate(1123.648438 0)"/>
    <use xlink:href="#DejaVuSans-Bold-72" transform="translate(1191.128906 0)"/>
    <use xlink:href="#DejaVuSans-Bold-67" transform="translate(1240.445312 0)"/>
    <use xlink:href="#DejaVuSans-Bold-65" transform="translate(1312.027344 0)"/>
    <use xlink:href="#DejaVuSans-Bold-74" transform="translate(1379.849609 0)"/>
    <use xlink:href="#DejaVuSans-Bold-20" transform="translate(1427.652344 0)"/>
    <use xlink:href="#DejaVuSans-Bold-4c" transform="translate(1462.466797 0)"/>
    <use xlink:href="#DejaVuSans-Bold-65" transform="translate(1526.1875 0)"/>
    <use xlink:href="#DejaVuSans-Bold-6e" transform="translate(1594.009766 0)"/>
    <use xlink:href="#DejaVuSans-Bold-67" transform="translate(1665.201172 0)"/>
    <use xlink:href="#DejaVuSans-Bold-74" transform="translate(1736.783203 0)"/>
    <use xlink:href="#DejaVuSans-Bold-68" transform="translate(1784.585938 0)"/>
    <use xlink:href="#DejaVuSans-Bold-73" transform="translate(1855.777344 0)"/>
   </g>
  </g>
 </g>
 <defs>
  <clipPath id="p2c22441bcc">
   <rect x="46.965625" y="75.228" width="440.575" height="287.308"/>
  </clipPath>
  <clipPath id="p6a5c12d9af">
   <rect x="553.553125" y="75.228" width="440.575" height="287.308"/>
  </clipPath>
 </defs>
</svg>
